<svg xmlns="http://www.w3.org/2000/svg" viewBox="0 0 177 234"><title>efl</title><path d="M96.26,93.79C83,121.34,61.77,138.09,31.09,142.11c-4,1.15-8.14-.49-12.09.89H17c-1.52-1.86-3.84-1.46-5.81-1.93a71.06,71.06,0,0,1-28.33-13.68c-3.92-4.83-8.69-8.83-13.07-13.21a25.75,25.75,0,0,1-3.38-3.54C-49,91-57,68.48-60.14,44c-.69-18.85-1.44-37.7,3.89-56.12A20.63,20.63,0,0,0-53-21.34c.43-4.87,3.45-8.88,5.15-13.34a60.49,60.49,0,0,0,6.22-10.63,69.12,69.12,0,0,1,17-22.22c2.19-1.87,4-4.37,7.43-4a2.84,2.84,0,0,1,1.6,1.42,8,8,0,0,1-.21,3.56,8.12,8.12,0,0,1-1.76,3.82,62.27,62.27,0,0,0-6.69,4.66c-3.31,1.34-5.09,4-6.06,7.27-.81,1.39-1.43,2.88-2.17,4.31a47.25,47.25,0,0,0-9.66,18.2c-.58,2.1-2,3.82-3,5.73a16.91,16.91,0,0,0-2.67,8.47A52.33,52.33,0,0,0-49.66-.8a9.48,9.48,0,0,1-2.49,6.88c-1.73,1.52-1.45,3.6-1.45,5.55,0,10.59,0,21.17,0,31.76a19.31,19.31,0,0,0,3,10.8,7.26,7.26,0,0,1,.76,2.37,24.86,24.86,0,0,0,3.5,14.09,9.19,9.19,0,0,1,.5,2.21c-.8,4.71,1.66,8.21,4.37,11.61a13,13,0,0,1,.74,2,18.39,18.39,0,0,0,6.16,10.18,55.54,55.54,0,0,0,4.09,6.19,12.7,12.7,0,0,0,6,7.58c2.81,2.68,6.36,4.56,8.5,8,2.15,2.94,5.4,4.39,8.36,6.25C-1,128.16,5.79,132,13.07,133.08c8.94,1.3,18.25,1.67,27.23-1,2.19-.34,4.41-.56,6.4-1.67,4.12-.66,7.22-3.46,10.82-5.19a10.55,10.55,0,0,0,5.3-2.64c5.45-1.44,7.82-6.47,11.58-9.9a8.55,8.55,0,0,0,3.91-4,14.09,14.09,0,0,1,2.17-4.09c2.55-1.86,4.92-3.87,5.66-7.16a6.41,6.41,0,0,1,.68-1.2c3.39-3,5.46-6.63,5.25-11.32a32.27,32.27,0,0,1,4.11-8.18c2.24-2.59,4.28-5.25,2.9-9a6.32,6.32,0,0,1,.31-2.18c2-4,2.36-8.32,2.43-12.7.57-1.75.65-3.94,3.36-3.79,2.2,3.61.39,8,2.27,11.68.21,4.41-1.37,8.46-2.69,12.53A193.26,193.26,0,0,1,96.26,93.79Z" transform="translate(63 91)" fill="#ac1312"/><path d="M-54.95-13c-5.11,19-3.95,38.55-4.18,57.94A1.2,1.2,0,0,1-61,45l-1.14-4c-1-3.29.43-6.79-.86-10V19c1.17-1.54,0-3.47.82-5.06.78-11.42,2.38-22.66,7-33.28C-53-17.3-54-15.12-54.95-13Z" transform="translate(63 91)" fill="#54364e"/><path d="M-17-71c-3,.19-4.67,2.63-7,4-1-.42-1.61-1-1.08-2.17C-14.23-79.87-1.47-87,13.56-89.93c.89-.17,2.07.29,2.44-1.07h2c5,1.39,10.17-.27,15.17.87A44.51,44.51,0,0,1,50-85.87a1,1,0,0,1-.43,1.41c-2.33,1.15-4.56.4-6.7-.51-11.28-4.8-22.4-2.22-33.52.62a16.7,16.7,0,0,1-5.41.73c-5.66.59-9.63,4.47-14.16,7.25C-12.76-74.93-14.46-72.42-17-71Z" transform="translate(63 91)" fill="#99201f"/><path d="M109-10.05c3.23,6.48,2.69,13.7,4,20.56.17.9-.24,2,1,2.5V32a7.65,7.65,0,0,0,0,6v3c-2.6,6.07-2.22,12.78-4.15,19a1.14,1.14,0,0,1-1.53-.61c-1.36-3.54-1.11-7.25-.53-10.81a155.94,155.94,0,0,0-.21-50.46C107.94-4.63,106.79-7.65,109-10.05Z" transform="translate(63 91)" fill="#632f48"/><path d="M33.17-90.13C28.11-90.34,23-89,18-91H33A1.76,1.76,0,0,0,33.17-90.13Z" transform="translate(63 91)" fill="#b55d5d"/><path d="M114,38c-1.73-2-1.39-4,0-6Z" transform="translate(63 91)" fill="#845b6f"/><path d="M-61,45h1.86c3.94,21.21,9.76,41.71,22.5,59.61,1.42,2,3.18,3.84,3.64,6.41a.78.78,0,0,1-1.2.08C-45.86,98.65-52,83.32-56.92,67.4-59.17,60.12-61.27,52.76-61,45Z" transform="translate(63 91)" fill="#5b344e"/><path d="M-34.2,111.08-33,111c6.44,3.31,10.19,9.65,15.7,14,.42.33.12,1.56.16,2.37C-24.24,123.43-29.64,117.7-34.2,111.08Z" transform="translate(63 91)" fill="#793240"/><path d="M108.82,59.94l1,.05c-1.93,11.29-6.32,21.69-11.54,31.78-.42.81-1.35,1.35-2,2C96.81,88.6,99,84,101.2,79.37,104,73.52,105,67.11,106.95,61A1.45,1.45,0,0,1,108.82,59.94Z" transform="translate(63 91)" fill="#65314c"/><path d="M-25.07-69.16-24-67A91.43,91.43,0,0,0-44.24-37.75c-.49,1.12-1.79,1.88-2.72,2.8a2.06,2.06,0,0,1-1.88-1C-43.38-48.81-35.95-60.22-25.07-69.16Z" transform="translate(63 91)" fill="#7e2944"/><path d="M-48.84-36a1.94,1.94,0,0,1,1.88,1,9,9,0,0,1-1.37,4.64c-2,3.94-4,7.83-3.8,12.49A5.29,5.29,0,0,1-54.95-13l-.25-6.39A43.13,43.13,0,0,1-48.84-36Z" transform="translate(63 91)" fill="#762933"/><path d="M109-10.05,109-2c-2.13,0-2-1.85-2.38-3.14-2.05-7.06-3.53-14.28-6.29-21.12a21.56,21.56,0,0,0-1.92-4.66,17.47,17.47,0,0,0-4.12-8c-2.09-4-3.71-8.31-6.88-11.71A5.58,5.58,0,0,1,86-55.13a2.83,2.83,0,0,1,1.09-2C98.66-43.41,105.59-27.55,109-10.05Z" transform="translate(63 91)" fill="#812831"/><path d="M87.05-57.09,87-55a2,2,0,0,1-2,.41c-5.75-5.94-11.3-12.1-17.54-17.55A58.49,58.49,0,0,0,54-80.71C52.26-81.57,49.78-82.07,50-85q0-.45,0-.9C65.64-80.51,77.77-70.63,87.05-57.09Z" transform="translate(63 91)" fill="#a21826"/><path d="M-52.91,5.1a7.22,7.22,0,0,0,1.8-5.48c-.49-5,.77-9.81,2.23-14.55,2.41-2.16,3-5,2.91-8.06,2.71-6.36,5.36-12.76,8.18-19.08a11.87,11.87,0,0,1,4.62-5c1.43-1,2.84-2.09,3.26-4C-28.7-54-26-55.93-24.8-58.85c2.31-1.26,3.14-4.82,6.62-4.26,3.89,1,4.16,1.8,1.85,5.37-3,2-5.64,4.24-6.68,7.87a17.64,17.64,0,0,1-1.4,3,12.56,12.56,0,0,1-1.23,1.63c-.83,1-1.91,2-.75,3.47,2.29,2.85,3.41,6.48,6.09,9.05.76.63,1.45,1.39,2.55,1.36,2.27,0,4,.87,4.22,3.23s-1.14,3.69-3.41,4.15c-4.55.18-8.24,1.55-9.2,6.68-3.95,5.74-6.14,11.91-5.58,19,.25,3.2,1.41,6.1,2,9.18.16,2.74.17,5.35,2.06,7.81,2.12,2.75,0,6,0,9a60.24,60.24,0,0,1-2.37,9.08,20.37,20.37,0,0,0,12,27.56,27.46,27.46,0,0,0,5.31,1.36c1.69.23,3.48.67,3.38,2.89S-11,71.81-13.09,72a11.69,11.69,0,0,0-3.8.43A43.66,43.66,0,0,0-5.75,70.32c2.93-1,5.07.82,7.14,2.57,1.39,1.18,3,2.12,4.11,3.62,2.7,4,1.39,8.52,1.45,12.87,1.26-.08,1.52-.9,1.85-1.65a9.38,9.38,0,0,1,1.86-3.46c1-1,2-.82,2.9.35,2.85,3.86,1.15,10.84-3.19,13-2.51.87-5.11-.81-7.61.29a11.17,11.17,0,0,1-4.65,0,17.33,17.33,0,0,0-5.93-.58c-6,0-6,0-5.9,6.14a15.47,15.47,0,0,1-.16,4.44c-1.1,3.88.8,5.49,4.26,6.07,2.57.39,4.54,2.87,7.43,2.13a10.47,10.47,0,0,1,3.26-.76c1.58.16,2.86,1.34,4.5,1.32,2.33,0,5.27,1.74,6.74.69,4-2.89,7-3.57,10.32.89.75,1,2.74-.53,4.17-.86a7.63,7.63,0,0,1,3.42.17,12.29,12.29,0,0,0,3.24.07,11,11,0,0,1,4.39-.13c1.3.17,2.26-.72,3.39-1.11a3.8,3.8,0,0,1,1.91,0c2.4,1.31,4.51,1,6.3-1.14a13.65,13.65,0,0,0,1-2.7c.82-4.18-.88-8.61,1.28-12.65,1.53-.84,2.48-.19,3.14,1.22.79,3.43.22,6.93.41,10.39.06,1.17-.77,2.72,1.07,3.33a3.16,3.16,0,0,0,2.07-.88c1.19-1.29,1.4-3,2-4.54.46-1.05.95-2.7,2.06-2.46,2.26.48,1.14,3,2.53,5.31A120.68,120.68,0,0,1,64.93,99c-3.6.89-1.67,6.71-6.32,5.94-1.25-1.39-1.47-3.27-2.33-4.85a3.48,3.48,0,0,0-4.13-1.84c-2.06.38-1.8,1.93-1.92,3.4-.37,4.66,1.28,9.51-1.33,14-4.27,1.5-5.67.72-6.16-3.49a36.77,36.77,0,0,1-.1-4.36c-.29-3.66.62-7.17,1.32-10.71a7.14,7.14,0,0,1,.47-3c1.23-2,3.43-2.67,5.3-3.8,5.66-3.29,6.4-11,1.42-14.84-2.07-1.6-3.73.48-5.6.66-2.82.09-5.55,1-8.38,1a3.48,3.48,0,0,1-2-.94c-.59-3.07,1.87-4,3.82-4.92,5.9-2.89,12.24-3.55,18.77-3.41-1.78-1.39-1.85-3.19-.77-5.15a4.05,4.05,0,0,1,1-1.12c3.41-1.8,7.51-1.42,10.85-3.42,11.11-3.64,15-13.4,13.75-25.58-.15-1.48-.59-2.92-.76-4.4.44-5-2.48-9.26-3.5-13.94-.25-3.45,1.3-6.31,3-9.13,1.44-1.5,2.56-3.16,2.43-5.37.39-5.45-.92-10.24-5.24-13.92a13.33,13.33,0,0,1-2.56-3.63c-2.9-7.47-10.08-7.36-16.16-8.64-3.38-.72-6.39-1.45-8.84-3.91a4.51,4.51,0,0,1-.74-1.24,18.72,18.72,0,0,0-4.75-10.59,24.49,24.49,0,0,0-7.53-6.22c-3.76-3.08-3.8-4-.32-7.22a4.38,4.38,0,0,1,2.27,0c3.1,1.78,5.23,5.55,9.63,4.65a13,13,0,0,0,4.67.53,5.19,5.19,0,0,1,3.15,1.25c1.93,3.79,4,7.46,7.9,9.65a9,9,0,0,1,2.33,2.47c1,1.85,1.57,4.08,4.08,4.57,3.13-2.07,4.1-5.76,6.35-8.5,4.51-5.5,4.69-5.66,10.57-1.51,2.16,2,4,4.2,4.52,7.24.11.69.16,1.38.22,2.07.35,3.31,2.37,5.69,4.49,8a9.69,9.69,0,0,1,1.46,2.54c1.11,4,1.57,8.12,3,12a34.93,34.93,0,0,0,3.84,18.45c.18,12.19,2.53,24.35.45,36.57-.28,1.62-.18,3.33-1.59,4.54s-1.67,2.6-2,4.16a25.4,25.4,0,0,0-2.88,13L100,68A42.37,42.37,0,0,1,97,77l-4.09,8c-1.34,4.33-3.68,8.16-6,12h0c-2,2.67-4.51,4.95-6,8L79,109.06c-1.17,1-2.54,1.73-3.74,2.71-4.64,2.61-7.26,7.65-12.06,10.07-2.57.31-3.74,2.44-5.27,4.1-3.47,2.11-6.43,5.3-10.94,5.23-2.5-.95-4.28.4-6,1.87-5.91,3.14-12.32,1.74-18.54,2.05C10.72,135.68.71,130.77-9,125c-1.33-3.68-4.9-4.48-7.82-6.12L-25,111a31.36,31.36,0,0,0-6.08-7.88c-2.45-1.27-3.14-3.72-4-6-2.2-3.43-3-7.78-6.71-10.22L-42.08,85c-1.66-4-4.1-7.74-4.78-12.15l-.19-1.82c-1.49-4.64-1.5-9.69-3.88-14.08l-.19-1.88a49.91,49.91,0,0,1-2.92-17c.21-9.1,0-18.2.07-27.3C-54,8.86-54.3,6.81-52.91,5.1Z" transform="translate(63 91)" fill="#34326a"/><path d="M101.14-11.08C98.59-14.65,99.46-19.13,98-23c1.25-1.18,1.69-3,3-4.07,4.34,7.83,4.73,16.9,7.92,25.09,3.54,13.93,2.15,28.14,1.74,42.18-.19,6.5-1.92,13.08-1.89,19.74l-1.88,1c-4-3.5-1-8.15-2-12.14,1.62-13.93.29-27.85-.05-41.77C103.36,1.07,102.58-5.07,101.14-11.08Z" transform="translate(63 91)" fill="#ab130f"/><path d="M-17-58c2.06-2.27,1.54-3.94-1.18-5.11L-17-67c1.7-1.51,3.34-3.19,6-2.34,1.4,2,2.43,4.46,5.44,4.54a6,6,0,0,1,3.73,4.43c.65,2.8.83,5.71,1.79,8.45a3.24,3.24,0,0,1,.38,1.4,3.2,3.2,0,0,1-4.21,1.9c-1.15-1-1.08-2.2-.41-4.27-1.1,2.49-1.82,4.28-3.33,5.56-2.24,1.57-4,1.08-5-1.42a3.81,3.81,0,0,1,1-4c-2.07.67-3-.25-3.27-2.26,0-2.61,1.91-3.6,3.84-4.51-.33-.23-.43.17-.66.19-1.69.43-2.62,2-4.11,2.68a1.87,1.87,0,0,1-1.27-.18A.82.82,0,0,1-17-58Z" transform="translate(63 91)" fill="#3c3a63"/><path d="M-52.91,5.1c0,11.79,0,23.57-.11,35.36-.07,5,3.23,9.51,1.9,14.64-2.95-2.66-3.8-6.2-3.83-9.92C-55,33.36-55,21.53-55,9.7-55,7.85-55.14,5.95-52.91,5.1Z" transform="translate(63 91)" fill="#652444"/><path d="M63,121c4.43-2.82,6.94-7.93,12-10A1.47,1.47,0,0,1,75,113c-3.41,4-5.62,9.45-11.89,10.11A1.43,1.43,0,0,1,63,121Z" transform="translate(63 91)" fill="#6e2140"/><path d="M100.1,66c-2.5-5.11-.94-9.32,2.88-13C103.28,57.62,103.08,62.13,100.1,66Z" transform="translate(63 91)" fill="#542950"/><path d="M-50.93,57c4.73,3.75,4,9,3.88,14.08A17.46,17.46,0,0,1-50.93,57Z" transform="translate(63 91)" fill="#5c274a"/><path d="M-17-71c1-3,3.6-4.43,6-6,2.07-1,3.65-.67,4.51,1.64a3.13,3.13,0,0,1-2,3.09c-2.61.36-4.65,2.54-7.44,2.37Z" transform="translate(63 91)" fill="#be0a0f"/><path d="M-41.85,86.87C-36.13,88-36,92.76-35.13,97.1-39.29,94.95-40.63,91-41.85,86.87Z" transform="translate(63 91)" fill="#68253b"/><path d="M87,97c.51-4.74,3.09-8.45,6-12C93.63,90.3,91.61,94.29,87,97Z" transform="translate(63 91)" fill="#70213f"/><path d="M-24.8-58.85c1.08,4-3.06,5.07-4.25,7.8a1.35,1.35,0,0,1-2.08-.08A8.08,8.08,0,0,1-24.8-58.85Z" transform="translate(63 91)" fill="#722239"/><path d="M-46.86,72.88c2.28,3.78,4.57,7.55,4.78,12.15C-45.74,81.79-48.16,78.06-46.86,72.88Z" transform="translate(63 91)" fill="#811d35"/><path d="M-16.84,118.9c4.25-.06,7.92.62,7.82,6.12C-11.9,123.33-15.17,122.14-16.84,118.9Z" transform="translate(63 91)" fill="#5d2547"/><path d="M-31.12,103.14C-27.3,104.38-25,106.79-25,111-28.53,109.52-30.92,107.17-31.12,103.14Z" transform="translate(63 91)" fill="#741e3c"/><path d="M81,105c0-4.2,2.49-6.47,6-8C87.09,101.23,84.52,103.48,81,105Z" transform="translate(63 91)" fill="#6b233b"/><path d="M-46-23c1.64,3.63,2.33,6.91-2.91,8.06C-49.33-18.14-48.06-20.71-46-23Z" transform="translate(63 91)" fill="#5e234e"/><path d="M-15.9-69.93c2.15-1.36,4-3.47,6.92-3,.56,2-.24,3.19-2.05,3.89L-17-67Z" transform="translate(63 91)" fill="#74222e"/><path d="M97,77A10.58,10.58,0,0,1,100,68C102.48,72.12,99.52,74.49,97,77Z" transform="translate(63 91)" fill="#802224"/><path d="M63,121q.06,1.07.11,2.14c-.87,2.5-2.94,2.78-5.16,2.79C58,122.6,59.62,120.9,63,121Z" transform="translate(63 91)" fill="#502a52"/><path d="M41,133c1.43-2.48,2.33-6.67,6-1.87C45.66,133.81,43.17,132.89,41,133Z" transform="translate(63 91)" fill="#4d2d48"/><path d="M-31.14-51.14l2.09.08c.28,3-1.11,4.34-4.12,4C-33.12-48.76-32.75-50.26-31.14-51.14Z" transform="translate(63 91)" fill="#4b2a54"/><path d="M75,113,75,111c.76-1.88,2.31-2.1,4.05-1.92A4.45,4.45,0,0,1,75,113Z" transform="translate(63 91)" fill="#791d3a"/><path d="M50-85C55-80.35,62-78.82,67-74,73.29-68,80.28-62.57,85-55a3.49,3.49,0,0,1-3.75,1.57,6.18,6.18,0,0,1-3-2.76,10.75,10.75,0,0,0-3.32-3.9A7.88,7.88,0,0,1,74-61a11.75,11.75,0,0,0-5.33-4.84,8.52,8.52,0,0,1-1.15-.7c-2.12-2-4.28-3.86-7.17-4.65a86.25,86.25,0,0,0-12-6c-5.07-.52-8.89-5-14.3-4.42-7.38-.06-14.75,0-22.11.18-1.88-.46-2.52-2-3-3.59,1.44-3,4.39-1.79,6.65-2.25,10-2.06,19.9-3.29,29.51,1.72C46.48-84.85,48.35-85.14,50-85Z" transform="translate(63 91)" fill="#b01212"/><path d="M-6.86-74.76C-7.61-76.67-9.16-77.11-11-77c4.25-3.39,8.66-6.5,14-8a11.49,11.49,0,0,1,2.44,5.56C3.61-75.89-1.48-74-6.86-74.76Z" transform="translate(63 91)" fill="#9d1919"/><path d="M5-80C2.7-81,3-83,3-85l6,0c1.89.07,2.1,1.34,2,2.82a3.38,3.38,0,0,1-2.3,2.92A3.4,3.4,0,0,1,5-80Z" transform="translate(63 91)" fill="#b90d0b"/><path d="M81.19-54,85-55l2,0a5.37,5.37,0,0,0,1.9,4.36C92.17-47.44,93.69-43.28,95-39c1.1,2.8.9,4.67-2.86,4-.35-3-3-4.62-4.35-7C85.32-45.87,81.06-48.73,81.19-54Z" transform="translate(63 91)" fill="#ad110f"/><path d="M92.16-35c2.56-.19,2.91-2,2.86-4,3.06,1.78,4.12,4.59,4.06,8a2.38,2.38,0,0,1-2,.85,7,7,0,0,1-5-2.88Z" transform="translate(63 91)" fill="#a71419"/><path d="M97-31l2.09-.06c1.69.82,2,2.3,2,4,0,2.1.22,4.4-3,4.07l-1.14-1.91C96-27,95.05-29,97-31Z" transform="translate(63 91)" fill="#bb0e06"/><path d="M57.93,62.9c-3,5.23,3.08,3.27,4.61,5.71-9.77,1.11-20-.65-27.6,7.11l-.27.59c-1.21.94-2.9.64-4.09,1.62-1.94,1.47-.81,3.46-.89,5.25C29.13,85.82,27.06,89,32,89.66A5,5,0,0,0,35.55,89c3-1.73,1.11-4.08.78-6.23.53-2.21,0-4.51.51-6.72,3.05-.27,6-1.67,9.14-.94a1,1,0,0,1-.12,1.25c-1.79,1.17-4.76,1.23-4.38,4.48a3.38,3.38,0,0,0,3.17,3.22c1.8.2,4-.05,4,2.53,0,2.3-1.48,3.52-4.8,3.64,2.36.22,3.44-.72,4.73-.67A1.79,1.79,0,0,1,50,91c-1.31,1.6-3.34,2-5,3a13.25,13.25,0,0,1-10.08,3.34c-2.3-.14-4.66-.25-6.8.95-1.48.71-1.75,1.88-1.29,3.33,1.24,3.95-.38,7.89,0,11.87a3.46,3.46,0,0,1-3,4c-2.55.3-3.48-1.71-3.86-3.74a39.06,39.06,0,0,1,0-11.42c.84-2.72,0-4-3-4.05-2.36-.05-5,.77-6.94-1.5,4.81-3,4.94-3.71,2-12.49a10.85,10.85,0,0,0-2.1,4.92C6.71,87.87,8,85,7.73,82.73S7.92,77.94,5,77c-6.36-7.69-14.19-4.91-21.87-3-1.07.26-2.1,1.36-3.15.18a2,2,0,0,1-.43-1.74c.52-1.22,1.73-1.39,2.95-1.4,1.66,0,3.32,0,5-.12a2.23,2.23,0,0,0,2.31-2.16c.07-1.69-1.29-1.58-2.44-1.73-13.83-1.75-20-10.24-20.71-24.07A8.39,8.39,0,0,1-31.23,37c2.29,1.92,1.48,4.58,1.55,7,.27,9.51,4.86,15.82,13.77,19.2,5.21,2,10.65,2.32,16.06,2.95,2.95,1.61,4.17,5.23,7.53,6.26C6.86,70.25,4,69.48,3.48,67a2.1,2.1,0,0,1,.58-1.29c1.56-.71,2.88,0,4.21.71,2.93,2.44,5.83,4.86,9.53,6.18,3.5,1.25,2.5,2.77,0,4.17-2.4,1.82-3.52,3.85-1.07,6.47,1.75,2.21,4.69.28,6.61,1.88.61,3.94-1.46,5-4.67,4.7,2.11.65,4.11.29,5-2.27,1.15-3.34,2.19-6.77-1.17-9.6a5.06,5.06,0,0,1-1.78-2.26c.47-1.63,1.91-1.74,3.2-1.88,8-.84,14.45-4.68,19.74-10.62A6.28,6.28,0,0,1,45.86,62C49.93,61.76,54.06,60.66,57.93,62.9Z" transform="translate(63 91)" fill="#363663"/><path d="M81.19-54c1.83,4.2,5.42,7.42,6.61,12-3.77-3.4-6.73-2.68-9,1.76-1.24,2.46-3.66,4.16-4.32,7-.43,1.92-2,2.46-3.85,2-2.34-5,2.4-7.66,4-11.87-3.38,1.41-3.6,6.14-7.53,6.11L65-38.79A10.14,10.14,0,0,1,66.27-41c1.12-2.82-.25-5.06-1.59-7.37-1-1.72-3-3.35-1.15-5.7.35-.64,3.05-.1,1-2a3.94,3.94,0,0,1-.16-1.34c1-2.72,1.62-5.38-.29-8a1.4,1.4,0,0,1,.44-2.14A3.57,3.57,0,0,1,68-67a6.85,6.85,0,0,1,.84.16,18.89,18.89,0,0,0,6.05,6v0a12.43,12.43,0,0,0,4,4Z" transform="translate(63 91)" fill="#38365e"/><path d="M21.23,101.95a39.81,39.81,0,0,0,0,12.31c.19,1.12.24,2.93,2.22,2.61A2.52,2.52,0,0,0,25.72,114c-.79-4.42,1.06-8.9-.44-13.26-.82-2.39.14-3.41,2.52-3.4,2.7,7,2.9,13.87-.66,20.65-5.26,3.1-6.55,2.65-9.77-3.68-.92,4.58-3.54,5.49-7.54,4.12-1.49-.51-3.24-.31-4.86-.44-3.34-2.71-4.29-6.64-5.36-10.51.44-1.41,1.73-1.51,2.87-1.84a2.66,2.66,0,0,1,1.41.2A3.35,3.35,0,0,1,5,107.62c.39,1.24.43,2.62,1.76,4.19,2.19-2.74,3-5.84,4.23-9-2.31.15-4.66.81-4.51-2.3.11-2.24,1.58-3.06,3.76-3a60.74,60.74,0,0,0,7.47,0C21.42,97.15,22.06,98.91,21.23,101.95Z" transform="translate(63 91)" fill="#e8e9f2"/><path d="M4,66q0,.4-.11.8C3,67.92,2,67.74,1,67.09c-7.06.16-14-.63-20.32-3.91-7.66-4-12-10.25-11.85-19.21,0-2.32,0-4.65-.07-7l2.33-8.81c1.32-1.8.62-5.15,4.08-5.32a4.24,4.24,0,0,1,1.51,2.56c0,4.13-2.65,7.6-2.8,11.69a23.84,23.84,0,0,0-.14,10.22,15.5,15.5,0,0,0,2.89,6.31c2,3.81,5.57,5.43,9.48,6.49,5,2.29,10.54.87,15.72,2C3.1,63.11,4.11,64.24,4,66Z" transform="translate(63 91)" fill="#ab8061"/><path d="M51-31.93a2.15,2.15,0,0,0,.27.88c1.34,1.18,2.12,2.49,1,4.24a3,3,0,0,1-3,.35c-3.82-4.35-5.68-10-10-14.16-10-9.71-20.65-9.83-30.51.13A38.24,38.24,0,0,0,4-34.74c-1.67,2-2.65,4.62-4.9,6.18A2.49,2.49,0,0,1-3-28.7c-1.68-2.28-.21-4.13.8-6.05.24-.41.51-.8.78-1.19C2.74-42.57,8-48.1,15-51.85A12.62,12.62,0,0,1,17.82-53c6.41-.52,12.89-1.39,18.34,3.34,3.46,1.54,5.71,4.53,8.41,7C47.75-39.71,49.49-35.9,51-31.93Z" transform="translate(63 91)" fill="#ba8a6b"/><path d="M36.72-48.89c-6.18-3.58-12.92-3.5-19.72-3,.65-4.84,4.48-3.75,7.3-4.09-1.66-.25-3.77.66-5.46-1,1.09-3.45,4.26-1.78,6.41-2.62a7.55,7.55,0,0,1,1.46-.09c1.59.27,2.93.24,3-1.94a33.42,33.42,0,0,1,1.1-6.24c.83-3.47-1.2-3.29-3.49-2.92-1-3.88.43-6.4,3.69-5.7,4.26.91,8.82,1.5,12.15,4.89,0,.94-.73,1.25-1.46,1.52a7.28,7.28,0,0,1-1.39.25c-1.24.14-2.62-.15-3.55,1.06-1.25,3.3,1.51,4.16,3.36,5.58,2.39,1.84,4.21,3.82,1.33,6.71-1.68.68-3.07-.22-4.53-.8-.43-.51-.61.71-.23.16.07-.1.18,0,.43.2.63.51,1.25,1,.78,1.93C34.11-52.25,36.31-50.61,39-49A1.72,1.72,0,0,1,36.72-48.89Z" transform="translate(63 91)" fill="#3a3960"/><path d="M82.14,5.17l-3.2,8.77a2.42,2.42,0,0,1-1.86,2.64,10.53,10.53,0,0,1-4.86-.5c-4.1-2.51-5.85-7.49-10.77-10.38-.5,8.23.66,16-2.26,23.35a1.66,1.66,0,0,1-1.51.12c-2.61-2-1.77-5-2.38-7.66.58-4.71.25-9.44.33-14.17a18.24,18.24,0,0,1,.51-5.61C56.9.07,58.35-1,59.65-2.19A3,3,0,0,1,61-2.55c3.75,2.36,6.6,5.78,9.88,8.69,3.87,3.44,3.67,3.66,5.86-1.26C78.61,4.17,80.44,3.44,82.14,5.17Z" transform="translate(63 91)" fill="#b5885d"/><path d="M-30.94,10.87c-3.74-10.27-3.26-20,4-28.67,2.72-3.53,6.48-5.39,10.6-6.69,3-.75,5.88-3,9.18-.94a2.1,2.1,0,0,1,.52,2.18C-8.33-21.12-11-21-13.32-20.14a13.36,13.36,0,0,0-3.31,1.06,23.88,23.88,0,0,0-8.14,6.18C-30.83-5.69-29.17,2-26.1,9.7c.92,2.37,2.31,4.59,2.29,7.25a4.73,4.73,0,0,1-.86,2.94c-3.25.73-3.43-2.3-4.63-3.93C-30.35,14.51-30.11,12.49-30.94,10.87Z" transform="translate(63 91)" fill="#bb8c66"/><path d="M83,28.06c1.56,6.21,2.06,12.46-.29,18.54C80.22,52.93,76.1,57.67,69,59a2.37,2.37,0,0,1-.75-2c.49-2.46,2.88-3.25,4.29-4.91C82,43.9,81.63,31.33,74,22.4a1.86,1.86,0,0,1-.27-1.33c1.3-1.29,2.08-3,3.35-4.31C81.44,19.27,81.3,24.14,83,28.06Z" transform="translate(63 91)" fill="#a77b62"/><path d="M57.28-48.92,54.18-50a6,6,0,0,1-4.55-1.52c-2.46-2.22-1.88-5.75,1.33-6.34,3.75-.69-.36-.79,0-1.11a2.76,2.76,0,0,1-.57-3.19c.91-2,2.49-1.79,4.15-1.08a7.83,7.83,0,0,1,1.84,1.57,8.56,8.56,0,0,0,1.16,1.39c0-.76-.25-1.54.15-2.29,4.48-1.23,5.75,1.33,6,5.08-2.15,3.06-1.86,5.89.28,9,1.34,1.93,3.89,4.11,1.09,6.88-3.13.77-4.4-1.53-5.66-3.6C58.72-46.45,58.83-48.16,57.28-48.92Z" transform="translate(63 91)" fill="#3b3961"/><path d="M-2,117c-3.09,2.56-4.53-1.73-7-1.69a2.94,2.94,0,0,1,.85-1.17c1.29-1.3-.33-.45-.38-.44a4.16,4.16,0,0,1-5-3.05c-.91-2.64,1.22-3.71,3.5-4.59-1.68-1.92-4.45-2.65-3.25-5.43,1-2.3,2.68-2.7,4.86-1.78a6,6,0,0,0,0-2.57c2.19,0,4.54-1.14,6.43.94A196.35,196.35,0,0,1-2,117Z" transform="translate(63 91)" fill="#423f5d"/><path d="M54.68,102.17c-.53-1.11-.37-3.17-2.63-2-1.49,4.52.21,9.25-.91,13.8l-1.47,1.92A.65.65,0,0,1,49,115c0-4.61-.17-9.23-.05-13.84,0-1.4-2.48-3.67,1-4.21,2.87-.44,6.13-1.58,7.71,2.17A34,34,0,0,1,59,104.91c1.39,1.46,3,2.85,2,5.22-.06,1.75-.21,3.47-1.89,4.54-1.82-.82-2.35-3.12-4.33-3.78C54.21,108,54.51,105.08,54.68,102.17Z" transform="translate(63 91)" fill="#e6e8ee"/><path d="M-17-58l0,1.11c.63,5.19,4.78,9.05,5.37,14.26-1.64,3.27-5.14,4.25-7.76,6.32-3,.35-4.16-1.26-4.23-4,1.49-1.89,4.48-3.5,1.22-6.31a3.56,3.56,0,0,1-.26-1.27c.42-1.28-.55-1.65-1.39-2.11C-23.11-53.94-20.92-56.72-17-58Z" transform="translate(63 91)" fill="#3b3a60"/><path d="M77-18.09l2,3.11c2.21,3.61,5.34,7,3.31,11.77-1.09.93-1.93.22-2.79-.43-4-11.89-12.57-17.72-24.71-19-1.22-1.34-2.76-2.56-1.78-4.73C62.17-27.05,71-26.08,77-18.09Z" transform="translate(63 91)" fill="#a47c5d"/><path d="M-8.38,96.23c2.11,1.28,3.46,2.87,2.49,5.55-1.63.12-1.79-1.49-2.8-2s-1.9-1.15-2.72-.32a4.14,4.14,0,0,0-1.14,2.64c0,1.34.87,1.38,2.29,1.55,3.24.39-.08,3.2,1.66,4.21-1.82,1.49-2.3-2.52-3.76-.19-.95,1.51-.39,2.94.67,4.11,2.9,3.22,4.08-1.19,6.44-1.53.31,2.92-.45,4.85-3.74,5-4.43-.63-8.44-1.51-6.09-7.65.44-1.15-.13-2.65.1-3.93.43-2.39-2.09-5.27-.12-6.83C-13.63,95.68-10.68,96.37-8.38,96.23Z" transform="translate(63 91)" fill="#dfdfec"/><path d="M21.23,101.95c.51-3.38-.73-4.92-4.32-4.42a31.92,31.92,0,0,1-5.49,0c-3.26-.12-4.32,1.5-4,4.41,1.73.8,1.77-.76,2.39-1.31a2.08,2.08,0,0,1,2.69-.45c1,.67.67,1.82.24,2.73-1.93,4-3.91,8-6,12.21-2-2.58-2.86-5-2.6-7.79A14.72,14.72,0,0,0,3,97c2.25-2.64,4.71.72,7-.24,2.63.05,5.27.23,7.9.13C21.86,96.8,23.1,98.29,21.23,101.95Z" transform="translate(63 91)" fill="#43425b"/><path d="M27.15,118a82.17,82.17,0,0,0,.66-20.65c.34-.34.65-.92,1-1,5.4-.72,11,.21,16.16-2.39v2.93c-1,1.61-2.6,2.16-4.22,2.73a6,6,0,0,1-1.45.11c-7-1-7-1-7,6.08C32,110.31,33.62,115.13,30,119Z" transform="translate(63 91)" fill="#42405f"/><path d="M-7-25.12-17-24q-.38-.32-.25-.64T-17-25c2.14-.41,3.14-1.79,2.43-3.79-.53-1.49-1.88-2.13-3.54-1.19-2.36,1.34-1.63-1.82-2.93-2-.45-1.86.74-2.68,2.14-3.37,3.68,1.12,8.27.17,10,5.51.53,1.65,2-.22,2.61-1.33C-5.21-33.34-4.59-36-1.18-35l-2.13,5.87C-3.43-26.81-4.45-25.27-7-25.12Z" transform="translate(63 91)" fill="#3b3758"/><path d="M61.07,110.14c-.13-2-2.72-2.95-2-5.22,3.14-.57,1.86-3.48,2.68-5.25s1.41-3.52,3.84-2.8.63,2.33.56,3.59c-.21,3.31-.79,6.63.06,9.92.33,1.27,1.19,2.62-.56,3.4a3,3,0,0,1-2.38.08c-1.31-.81,0-2.07-.18-3.15A28.49,28.49,0,0,1,63,107Z" transform="translate(63 91)" fill="#d6d8e1"/><path d="M3,97c4.25,3,4,6.51,1.18,10.31L2.94,106c-.94-1.31.3-3.37-1.63-4.53-1.91,2.48.6,3.24,1.65,4.51-.7,1.27-2,1-3.08,1.12-.45,3,1.54,5.81,1,8.86A3.21,3.21,0,0,1-2,117a2.84,2.84,0,0,1-.34-.36c-1.14-1.7-.84-17.66.37-19.43Z" transform="translate(63 91)" fill="#e1e2ed"/><path d="M46,75.48l0-.35c5-3.41,5.11-3.38,8.16,3.15C57.51,85.53,56.45,88.81,50,91l-1-.83c.34-2.54,2.09-4.7,1.8-7.43-.19-1.85-.51-3.51-2.27-4.5-.39-.23-.77-.49-1.15-.74C46.8,76.91,45.57,76.76,46,75.48Z" transform="translate(63 91)" fill="#373764"/><path d="M79.87-4.12l2.23,1c2.49-.4,2,2,2.85,3.08-.1,2.19-.34,4.29-2.82,5.18-1.68-.59-3.41.93-5.07-.13-3.26-.36-3.3-2.87-2.83-5C74.84-2.74,76.73-4.46,79.87-4.12Z" transform="translate(63 91)" fill="#de8d30"/><path d="M55-62.26c-1.35.12-3.29-2.08-3.95.77s2.27,2,3.51,2.67c-.47,3.45-5.72-.23-5.45,4.15.2,3.34,3.63,2.82,5,4.66-1.4,2.11-2.8.56-4.19,0-5.53-2.06-5.75-2.5-4.26-8.43,1.41-2.59.39-5.7,1.74-8.31,3.74-2,5.61,1,7.82,3A1.71,1.71,0,0,1,55-62.26Z" transform="translate(63 91)" fill="#cecde2"/><path d="M77-18.09C70.11-24,61.85-26.27,53-27q-.53.42-.72-.23l-1.06-3.85c5.59,4.33,12.92,3,19,5.85C73.65-23.6,76.35-22,77-18.09Z" transform="translate(63 91)" fill="#50384e"/><path d="M69,56.75,69,59C65.85,61.6,62,61.64,58.2,62.13c-3.87.75-7.77.22-11.66.29C45,59.58,47.89,60,49,59.13c5.5-.23,10.71-2.16,16.15-2.81C66.47,56.17,67.76,55.87,69,56.75Z" transform="translate(63 91)" fill="#ba8658"/><path d="M67.16-36.95c2.81-1.4,3.65-4.5,5.68-6.58.7-.72-.3-3.3,2-2.13a2.75,2.75,0,0,1,1,4.23c-1.08,1.63-2.45,3.08-3.69,4.61s-1.29,3.67-1.52,5.62C68.91-32.74,66.67-34,67.16-36.95Z" transform="translate(63 91)" fill="#d0d2de"/><path d="M5,77c2.64-1.84,3.84-.93,4,2.07.23,3.39-.64,6.88.83,10.17-1,1.55-2.19,3.37-4.18,2.2-1.55-.91-.28-2.6.14-4C6.93,83.89,6.32,80.41,5,77Z" transform="translate(63 91)" fill="#e8e8f3"/><path d="M39.9,99a8.54,8.54,0,0,0,.89,0c4,2.1,1.51,5.82,2.21,8.74-.5,3.08.85,6.18-.07,9.26H41.18c-4.22-3.15-5-5.62-3.46-11.4C39,103.62,38.13,100.88,39.9,99Z" transform="translate(63 91)" fill="#3e3e50"/><path d="M38.85,106c-1.92,4.25,0,7.69,2.33,11a2.52,2.52,0,0,1-3,1.88,19.57,19.57,0,0,1-3.69-6.43c-.72-1.83-1.52.1-2.21-.29-1.43-1.91-.76-4-.48-6,1.77-1,3.91-.52,5.7-1.47C38.31,104.75,38.66,105.28,38.85,106Z" transform="translate(63 91)" fill="#e4e5ed"/><path d="M-18.95-35-21-32c-3.58-2.86-4.72-7.46-7.64-10.86-.79-.92,1.58-2.56,2.77-3.65A52.86,52.86,0,0,1-22.55-42a1.58,1.58,0,0,1-.22,1.37c.21,2.2.95,3.92,3.58,3.92A1,1,0,0,1-18.95-35Z" transform="translate(63 91)" fill="#ced2de"/><path d="M101.14-11.08a29.74,29.74,0,0,1,3.74,18.14C100.65,1.63,100.69-4.68,101.14-11.08Z" transform="translate(63 91)" fill="#70203f"/><path d="M-30.94,10.87c2.55,2.7,2.85,6.81,5.81,9.25a1.67,1.67,0,0,1,0,2.73c-1.57,1.55-1.79,4-3.74,5.33C-25.86,22-32,16.85-30.94,10.87Z" transform="translate(63 91)" fill="#4f3d43"/><path d="M46.87-58c-2.25,4-.31,6.28,3.12,8-4.51,1-7.76-.8-10-4.7.28-1.3,1.69-1.14,2.41-1.88,1.2-.95,1.37-2.63,2.55-3.6C46.65-60.4,46.5-59,46.87-58Z" transform="translate(63 91)" fill="#3c3c63"/><path d="M-17-25q0,.48,0,1a45.75,45.75,0,0,1-9.89,6.24C-26.24-23-23.59-24.91-17-25Z" transform="translate(63 91)" fill="#4d384b"/><path d="M42.93,117c-.72-3-1.32-5.95-.77-9,.4-.61.66-1.48,1.7-1a24.37,24.37,0,0,1,.14,3.88c-.48,4.07.89,5.74,5,4.14l.65.87C47.91,119.29,45.65,119.62,42.93,117Z" transform="translate(63 91)" fill="#dfe1e8"/><path d="M85,0,82.1-3.08c.38-4.32-2-7.94-3-11.9C84.57-11.38,85.24-5.88,85,0Z" transform="translate(63 91)" fill="#503a45"/><path d="M83,28.06,77.15,16.93q-.44-.27-.32-.59t.25-.33l1.87-2.08C81.16,18.4,83.53,22.81,83,28.06Z" transform="translate(63 91)" fill="#523d41"/><path d="M57.28-48.92c2.16-1.5,2.36,0,2.72,1.65.59,2.72,1.75,5,5,5.3a3.67,3.67,0,0,1,2,2c-.32,1-1.27,1-2.05,1.18C60.55-40.74,57.53-43.77,57.28-48.92Z" transform="translate(63 91)" fill="#aba8cc"/><path d="M32.79,111.94l.65-2.36c.48.34,1.12.59,1.4,1a25.56,25.56,0,0,1,3.35,8.27A3.91,3.91,0,0,0,34,119C31.7,117,31.46,114.59,32.79,111.94Z" transform="translate(63 91)" fill="#525562"/><path d="M.85,115.92a7.38,7.38,0,0,1-1-8.86L5,118C3.17,118.18,2.33,116.42.85,115.92Z" transform="translate(63 91)" fill="#505064"/><path d="M32.79,111.94c-.29,2.46.79,4.69,1.22,7l-4,0c1.21-4.6,1.15-9.3,1.19-14a1.36,1.36,0,0,1,1.86-.16.89.89,0,0,1-.28,1.17A5.39,5.39,0,0,0,32.79,111.94Z" transform="translate(63 91)" fill="#e1e2ea"/><path d="M43.86,107l-1.7,1c-.5-3,.82-6.25-1.37-9,.85-1.82,2.85-1.31,4.22-2.08C45.45,100.39,43,103.52,43.86,107Z" transform="translate(63 91)" fill="#d5d6e0"/><path d="M51-31.93,44.12-42a2.14,2.14,0,0,1,1.93-1A13.64,13.64,0,0,1,51-31.93Z" transform="translate(63 91)" fill="#51394f"/><path d="M46.05-43a2,2,0,0,1-1.93,1,39.38,39.38,0,0,1-7.4-6.88L39-49A16.49,16.49,0,0,1,46.05-43Z" transform="translate(63 91)" fill="#563539"/><path d="M54.68,102.17c1.23,2.82-.63,6.05,1.16,8.81,1.3,1.46,2.4,3,1.19,5-2.93,1.36-4.38,1.74-3.15-2.64C54.87,109.84,54.46,105.91,54.68,102.17Z" transform="translate(63 91)" fill="#d0d1dc"/><path d="M97-31q-.06,3-.12,6.09a11.93,11.93,0,0,1-4.7-8.18Z" transform="translate(63 91)" fill="#77222f"/><path d="M-23-42.13c-3.34.09-2.52-2.53-2.87-4.39a.54.54,0,0,1,.37-.49c1.37.41,2-2,3.57-.89l0,1.16C-20.84-44.86-20.64-43.18-23-42.13Z" transform="translate(63 91)" fill="#4e4c70"/><path d="M43.05-56c-.65,1.3-2,1-3.06,1.27L37.94-55,34.4-57.62c2.5-2.57,4.39,1.07,6.66.71C41.65-56.44,42.63-56.8,43.05-56Z" transform="translate(63 91)" fill="#adacd0"/><path d="M36.83,76.07c2.43,2.31,1.32,4.61,0,6.92a1.75,1.75,0,0,1-2.18-1.13c-.19-1.52.18-3.06-.11-4.58a1.53,1.53,0,0,1,.5-1.16l-.1-.39Z" transform="translate(63 91)" fill="#bcbeda"/><path d="M51.14,114c.77-4.57-.68-9.28.91-13.8C51.66,104.8,53.1,109.52,51.14,114Z" transform="translate(63 91)" fill="#4d4b69"/><path d="M-22-47.91c-1.29-.1-1.86,2.66-3.57.89L-24-50c1.15-.49,2.53-1.76,3.52-.52S-21.59-48.89-22-47.91Z" transform="translate(63 91)" fill="#acaec2"/><path d="M46,61.92l12.23.22q-.15.38-.26.77L45,63C44.74,62.16,45.08,61.82,46,61.92Z" transform="translate(63 91)" fill="#ab7b5c"/><path d="M57,116l-1.19-5c3.85-1.23,1.93,2.74,3.34,3.71A2.21,2.21,0,0,1,57,116Z" transform="translate(63 91)" fill="#51515f"/><path d="M-18.95-35l-.25-1.69C-18-40.19-14-40.39-12-42.88c.43-2.65,2.9-3.35,4.57-4.81C-6.32-48.31-5.58-50-3.89-49a5.92,5.92,0,0,0,3.9-2c-.92-1.65,0-3.61-.88-5.27-.38-1.8-1.53-3.52-.59-5.46C2-63.34,2.87-59.93,4.76-58.5c.61.46,1.18,1.53,2,.69.59-.59.1-1.58.07-2.39a42.81,42.81,0,0,0-.47-5.23c-.21-1.11-.37-2.06-1.27-.3-2.63,1.1-5.38-.72-8,.39-1,.48-2,.91-3,1.31-3.92.56-5.54-1.22-5.14-5.05L-9-73l2.12-1.79c3.2-.53,5.9-2.83,9.41-2.48C4-77.1,4.4-78.87,5-80l3.77-.18c3.52-.8,7.32.09,10.68-1.71,8.6-.19,17.21-.5,25.21,3.57,1.39.71,2.95-.09,4.41.22,4.19,1.6,8.38,3.18,11.84,6.16a8.11,8.11,0,0,1,3,5c3.56,3.12,3.5,6.55.89,10.21A1.35,1.35,0,0,1,63-57.2c-.2-3.13-1.43-5.19-5-4.82-1.45,1.26-2.19,0-3-.87-2-1.72-4-3.4-6.8-3.76C45.92-67.47,44.41-69.17,43-71c-3.52-2.22-7.59-3-11.47-4.22-3-1-4,.46-3.32,4.17C31.54-67.43,31-61.61,27.1-59l-1,0c-6.86-.14-7.33-.74-7.57-9.42a56.21,56.21,0,0,0,.22,11.27H29.31l.14,1.32c-3.79,2.3-9.68-1.29-12.45,3.89L14.9-51a27.72,27.72,0,0,0-16,15.89l-.11.13a4.3,4.3,0,0,0-3.82,4c-.31,2.2-1.39,4-3.75,3.82-2.19-.14-2.27-1.89-1.92-3.76.31-1.62-1-2-2.22-1.95C-15.21-32.85-17-34.06-18.95-35Z" transform="translate(63 91)" fill="#33336a"/><path d="M-7-47.13l-5,4.25c-2.93-3.26-2.67-8.29-6.36-11.23-.85-.68,1.2-1.67,1.39-2.78a7,7,0,0,1,.89-.18c2-.51,1.26,1.41,1.89,2.12.34,1.66.92,2.64,2.47.88.65-.73,1.05-2.56,2.36-.78.86,1.17,1,2.57-.93,3-2.28.45-1.95,2-1.36,3.4.84,2,2.28,1.33,3.63.48C-7.08-48.41-6.95-47.9-7-47.13Z" transform="translate(63 91)" fill="#d4d4e4"/><path d="M-5.89-64c.11-1.21,1.31-1.43,2-2.15,4.6-1.64,6.76,2.37,9.84,4.24a9.48,9.48,0,0,1,2,2c.18,1.52,1.7,3.41-.44,4.41C5.69-54.74,5.12-57,4-57.75,2.23-59,1.54-61.4-.83-61.89c-1.06.13-.22,2.38-2,1.75A5.44,5.44,0,0,0-5.89-64Z" transform="translate(63 91)" fill="#d6d8e9"/><path d="M-2.79-60.14c.82-.39.72-1.82,2-1.75L0-56c-.07,1.7.19,3.47-1,4.94A29.15,29.15,0,0,1-2.79-60.14Z" transform="translate(63 91)" fill="#a4a1cb"/><path d="M-14.19-55l-1.89-2.12C-15-58.3-14-59.72-12.24-60.17c1.13,0,2.69-1.36,3.1,1C-11.53-58.63-13.51-57.57-14.19-55Z" transform="translate(63 91)" fill="#a3a2bf"/><path d="M-7-47.13-8-48l3.17-5.36,1,0q0,2.18,0,4.36Z" transform="translate(63 91)" fill="#c3c4df"/><path d="M-1-51.06c.24-1.67-.68-3.57,1-4.94,1.72,1.69,1.38,3.37,0,5.06Z" transform="translate(63 91)" fill="#b3b1d4"/><path d="M-9.13-59.21c-.8-1.07-2-.72-3.1-1,1.21-1.15,2.68-.91,4.1-.67.28,0,.46.66.68,1Z" transform="translate(63 91)" fill="#8c8cac"/><path d="M49.1-78.09c-1.32.7-2.68,1.49-4.2.87C36.58-80.63,27.83-81.09,19-81c.3-2.39,2.18-1.33,3.38-1.43,4.19-.36,8.43.51,12.6-.51C40.33-83.18,44.13-78.94,49.1-78.09Z" transform="translate(63 91)" fill="#4d2b53"/><path d="M35-83c-3.16,1.95-6.65.51-10,1-2,.27-4.26-.78-6,1-3.15,3.32-6.69,1.86-10.2.84l2.18-2C18.93-84,27-82.69,35-83Z" transform="translate(63 91)" fill="#53294c"/><path d="M64-66.94c-1.9-1.12-2.65-2.95-3-5,3.28.3,5.33,2.38,7.08,4.9Z" transform="translate(63 91)" fill="#67223b"/><path d="M74.91-60.91c-3.87-.1-5.83-2.15-6.05-6A8.29,8.29,0,0,1,74.91-60.91Z" transform="translate(63 91)" fill="#752235"/><path d="M78.91-56.89c-2.75.06-4.12-1.25-4-4A5.28,5.28,0,0,1,78.91-56.89Z" transform="translate(63 91)" fill="#7a2033"/><path d="M44.08,64c-5.6,8.14-14.16,10.31-23.2,11.52-.36,1.75-1.67,1.21-2.78,1.15a1.91,1.91,0,0,1-1-.92l2.27-1.36C14.79,73,10.75,70.92,7.8,67.21A3,3,0,0,1,10.67,66c4.7,1.14,8.89,4.12,14.05,3.71,2.45-.19,4.88-.24,7.13-1.37A10.44,10.44,0,0,0,39,62.62a3.46,3.46,0,0,1,1.06-.92C41.94,61.6,43.39,62.18,44.08,64Z" transform="translate(63 91)" fill="#b38365"/><path d="M47.88,77C53.34,79,53.83,84.75,49,90.17a8.4,8.4,0,0,1-6.68.53,1.57,1.57,0,0,1-1.11-2c.43-1.06,1.19-.68,2-.18,1.85,1.18,3.62,1.39,4.64-1,.48-1.14.55-2.71-1.29-2.17-4.11,1.21-6-.78-6.49-4.36-.56-4.28,2.55-5.2,5.95-5.54.93.19,2,.23,2,1.58-.87,1-2.34,1.17-3.27,2.11a1.91,1.91,0,0,0-.54,2.22,1.55,1.55,0,0,0,1.56.94,1.84,1.84,0,0,0,1.72-1.49C47.8,79.58,47.22,78.2,47.88,77Z" transform="translate(63 91)" fill="#cbcae4"/><path d="M23.08,76.76c4.55,3,3.19,7.14,1.82,11.05-1,3-3.62,3.56-6.51,3.25-2.29-.25-3.67-1.17-3.14-4.17,3.17,1.87,6.53,4.67,7.59-1.49a12,12,0,0,1-1-2.29,11.8,11.8,0,0,1,.23-5A2.79,2.79,0,0,1,23.08,76.76Z" transform="translate(63 91)" fill="#cdcee3"/><path d="M36.06,89.78c-1,2-2.77.93-4.22,1.13-2.72-2.24-4.07-4.61-.79-7.49A4.65,4.65,0,0,1,36.77,85C38.34,86.84,37.13,88.3,36.06,89.78Z" transform="translate(63 91)" fill="#585a73"/><path d="M36.06,89.78c1.08-4.51.21-5.51-5-5.75-1.13.54-1.58-.22-2-1-1.33-2.31-2.15-4.55.9-6.22,1.17.73,1.07,2.21,1.88,3.14s2.18,1,3,2l2,1.12C38.91,85.52,41,88,36.06,89.78Z" transform="translate(63 91)" fill="#cfcfe1"/><path d="M44.08,64l-4-2a1.66,1.66,0,0,1-1.38-1.4,2.74,2.74,0,0,1,1.54-2.22,40.91,40.91,0,0,1,4.71-1,4.56,4.56,0,0,1,3.35.76A1.64,1.64,0,0,1,49,59.9l-3.08,2L45,63Z" transform="translate(63 91)" fill="#d5964d"/><path d="M1,67.09l2.89-.3C5.7,69,8.92,70,9.4,74,5.07,73.21,2.42,71,1,67.09Z" transform="translate(63 91)" fill="#263972"/><path d="M11.11,67l-3.31.25L4,66c-.82-.88-2-1.62-1.19-3.13l.56-.47A8,8,0,0,1,7,61.84a8,8,0,0,1,2.22.33,3.73,3.73,0,0,1,2.51,2.67A2.38,2.38,0,0,1,11.11,67Z" transform="translate(63 91)" fill="#e78e40"/><path d="M15.79,84.1c-3.73-3.42-1.57-5.92,1.31-8.3l0,.43a1.73,1.73,0,0,1,1.35,1.51,18.33,18.33,0,0,1-.87,5.74C17.15,84.12,16.64,84.62,15.79,84.1Z" transform="translate(63 91)" fill="#cacbe1"/><path d="M29,83l2,1c-2.54,2.62.27,4.61.8,6.87C26.22,89.37,25.93,88.54,29,83Z" transform="translate(63 91)" fill="#b7b9cd"/><path d="M15.79,84.1l1.28-1.27a21,21,0,0,1,5.76-.14q0,1.35,0,2.71C20.54,84.72,17.64,87.25,15.79,84.1Z" transform="translate(63 91)" fill="#c7c8de"/><path d="M30.76,81c-1.18-1.24-.62-2.81-.82-4.24,1.52-1.59,3.34-.85,5.1-.66q0,.41,0,.81C33.46,78.16,32.23,79.71,30.76,81Z" transform="translate(63 91)" fill="#c7c9e3"/><path d="M18.14,77.06l-1-.82,3.76-.67,2.19,1.19-.23,1.56A5.13,5.13,0,0,1,18.14,77.06Z" transform="translate(63 91)" fill="#cccde2"/><path d="M63-57.2l1.88.47A2,2,0,0,0,65-56c.61,1.16-.44,1.48-1,2-1.37,2.8,1.3,4.12,2.34,5.93,1.54,2.69,2.7,5.2.71,8.1a1.79,1.79,0,0,1-2-2c1.56-2.94-1-4.44-2.21-6.45C61.09-51.36,58.54-54.38,63-57.2Z" transform="translate(63 91)" fill="#d2d4e4"/><path d="M64-54l1-2c1.4.66,2.92,1.21,2.78,3.45Z" transform="translate(63 91)" fill="#c8cbdb"/><path d="M16.53,100c2.73,5.86,2.57,11.14-2.21,15.44-1,.86-2.09,1.94-3.49,1-1.56-1.06-.46-2.31.05-3.47Q13.72,106.48,16.53,100Z" transform="translate(63 91)" fill="#3f405d"/><path d="M-24.16,54a7.23,7.23,0,0,1-2.89-5.92,33.37,33.37,0,0,1-.07-11.22c-.26-4.28,2.15-7.8,3.33-11.67a1.6,1.6,0,0,1,1.95-.62,6.65,6.65,0,0,1,3.13,4c2.23,4.35,2.14,9.64,5.53,14.17.9-2.49,1.38-5,4.47-4.35,2.66,1.23,2.63,4,3.56,6.21a65.75,65.75,0,0,0,6.8,14.26c.76,1.19,1.93,2.36,1.19,4l0,0C-3.21,63-9.32,64-15,61A93.75,93.75,0,0,1-24.16,54Z" transform="translate(63 91)" fill="#363268"/><path d="M-22,25.12l-1.76.11a3.18,3.18,0,0,1-1.37-2.38q0-1.37,0-2.73l.26-3.39a2.78,2.78,0,0,1,3-.21,4.41,4.41,0,0,1,2,3.25,8.7,8.7,0,0,1,0,2.34C-20.14,23.44-20.6,24.62-22,25.12Z" transform="translate(63 91)" fill="#d59540"/><path d="M-24.16,54c4,1,6.83,3.65,9.15,6.92C-19.13,60.07-22.55,58.25-24.16,54Z" transform="translate(63 91)" fill="#4f3e43"/><path d="M-27.12,36.9q0,5.61.07,11.22A14,14,0,0,1-27.12,36.9Z" transform="translate(63 91)" fill="#6c3f1f"/><path d="M3-34.92C12.45-52.42,30.85-54,43-38.31A37.44,37.44,0,0,1,49.27-27a1.34,1.34,0,0,1-.44,1.43,121.15,121.15,0,0,0-21.31,5.09A5.39,5.39,0,0,1,26-20.4c-4.36-1.42-9.09-1.67-13.17-4-.73-.74-1.37-1.51-.92-2.66,1.19-1.1,2.66-.86,4-.87-2.24-.49-4.08.54-5.82,1.9C2.93-25.62.92-28.16,3-34.92Z" transform="translate(63 91)" fill="#343464"/><path d="M-1.07-35.15C.74-44,6-49.34,14.9-51A71.31,71.31,0,0,0-1.07-35.15Z" transform="translate(63 91)" fill="#3a395f"/><path d="M-7-25.12l3.68-4,2.21.15A3.52,3.52,0,0,1,.18-26.21a6.21,6.21,0,0,1-.55,3,29.12,29.12,0,0,0-3.43,5.4c-1.33.75-2.41.28-3.39-.68a3.64,3.64,0,0,1-.66-1.38,3.19,3.19,0,0,1,.68-2.89Z" transform="translate(63 91)" fill="#c1863a"/><path d="M-.94-26.07-1.09-29,3-34.92c0,7.59.37,7.95,8,7.86q.53-.59.9.11l1.1,1.8C8.23-23.09,3.62-24.18-.94-26.07Z" transform="translate(63 91)" fill="#5e4341"/><path d="M48.89-26.21a1.36,1.36,0,0,1,.39-.79l3-.2A1.88,1.88,0,0,1,53-27c.61,1.36,2.09,2.27,2.09,4,.4,1.16-.23,1.86-1.09,2.46a3.13,3.13,0,0,1-2.19,0c-1.55-.84-3.06-1.72-3.55-3.6A3.13,3.13,0,0,1,48.89-26.21Z" transform="translate(63 91)" fill="#bf903e"/><path d="M43-71c2.68.32,3.95,2.31,5.18,4.34-.05,2.94.87,6-1.31,8.63l-1.62-2c-3-1.91-6.31-3.5-8-6.94a3.06,3.06,0,0,1,.4-2.09c2-1.67,3.54-.16,5.21.73-.5-1-2.37-1-2-2.64Z" transform="translate(63 91)" fill="#3c3c62"/><path d="M18.73-57.14c-2.82-.79-1.24-3-1.39-4.57-.25-2.64-.34-5.3-.49-7.95-.08-1.43.18-2.94,1.85-3,2.21,0,1.09,1.91,1.31,3a4.2,4.2,0,0,1,0,1.49c-.84,4.95.16,8.65,6.06,9.1C24-56.93,20.94-58.73,18.73-57.14Z" transform="translate(63 91)" fill="#bec0d4"/><path d="M37.72-67.07c2.36,2.52,6,3.62,7.53,7.07-.11,1.68-.52,3.2-2.2,4a2.17,2.17,0,0,1-2-.94c2.64-3.45-.52-4.59-2.54-5.9-2.83-1.83-5.14-3.61-2.66-7.27C38.8-70.52,36.75-67.86,37.72-67.07Z" transform="translate(63 91)" fill="#d4d5e7"/><path d="M27.1-59c2.78-3.8,2-7.93,1.12-12.07.57-1.43,1.57-2.24,3.11-1.65,1.75.67,1,2,.81,3.32A59.29,59.29,0,0,0,31.22-61C31.11-57.36,29.88-56.7,27.1-59Z" transform="translate(63 91)" fill="#cbcadb"/><path d="M40.88-70.95c1.93,1.38,5.26,1.83,3.71,5.69C42.37-66.55,41.14-69.52,38-69c-.58-1.89,1.25-1.2,1.9-1.77Q40.39-70.87,40.88-70.95Z" transform="translate(63 91)" fill="#b6b4d3"/><path d="M39.9-70.76,38-69l-.28,1.92c-1-.76-.48-2.48-1.87-3C37-71.66,38.46-71.11,39.9-70.76Z" transform="translate(63 91)" fill="#d2d2e7"/><path d="M56.93,1l-.17,5.84c-1.57,5.32-.5,10.78-.85,16.17-.13,2-.2,3.65-2.45,4.25-2.36-1.19-5.51-.5-7.32-3-2.2-5.47-2.47-11.22-2.52-17,0-2,.61-4.58-2.7-4.84-1.57-.13-3.14-.06-4.7-.09-1.29,0-2.58,0-3.87,0C27,.82,22.11,2.36,17.27,4.41c-2.38-.67-4.47-2.32-7.13-2.05-2.43-.17-5,.44-7.21-1a5.41,5.41,0,0,1-1-4.72c.72-2.62,2.9-4,5-5.28C12.19-12,17.72-15,23.29-17.85a12.56,12.56,0,0,1,6.15-.08c7.66,3.67,15,8,22.45,12.05a26.94,26.94,0,0,1,3.39,2.51A6.16,6.16,0,0,1,56.93,1Z" transform="translate(63 91)" fill="#373363"/><path d="M54.21-21l.89-2c13.71.16,21.32,6,24.76,18.9-6.11,4-6.2,4.28-2.8,9.15,0,2.12.59,4.73-1.9,5.67-2.82,1.06-3.27-2-4.68-3.44-3.11-3.16-7-5.5-9.46-9.34a3.8,3.8,0,0,1-.72-4.29c3.91-1.19,4.74-3.14,2.91-7-.43-.9-1.08-1.7-1.46-2.61-1.64-3.88-3.15-2.81-4.67.07C54.07-16.45,54.25-18.8,54.21-21Z" transform="translate(63 91)" fill="#353465"/><path d="M58.86,28.83c.35-4.29.84-8.58,1-12.88.18-4.07,0-8.15,0-12.84C66,6.49,69.16,11.61,73.07,16a2.81,2.81,0,0,1,.57,2.89c-3.29,4.7-5.3,10.48-11.1,13.06C60.52,31.85,58.65,31.57,58.86,28.83Z" transform="translate(63 91)" fill="#38335e"/><path d="M52.88,26.72C55.35,26.15,55,24.14,55,22.4c0-4.57,0-9.15,0-13.72,0-1.21-.17-2.47,1.73-1.78.32,5.09.56,10.17-.5,15.22.13,4.38,1.46,8.93-1.79,12.83a2.06,2.06,0,0,1-1.56.4c-2-1.07-4.16-.92-6.3-1.07s-4.48-.16-4.83-3.14c1.17-1.53,2.92-1.39,4.53-1.45,2.07-.08,3.3-1.27,4.4-2.79A2,2,0,0,1,52.88,26.72Z" transform="translate(63 91)" fill="#641d1c"/><path d="M53.7,35.11c1.82-4.14,2.08-8.59,2.55-13C57.78,24.18,56.33,27,58,29a4.83,4.83,0,0,1-.14,6,3.39,3.39,0,0,1-3.54,1.35A1.18,1.18,0,0,1,53.7,35.11Z" transform="translate(63 91)" fill="#a98a72"/><path d="M61-7q0,2.47,0,4.93l-1.11.25a2,2,0,0,1-1.82-1.38c-.61-3.93-2.9-7.69-1.26-11.87C61.24-13.82,62.27-11.84,61-7Z" transform="translate(63 91)" fill="#513b40"/><path d="M72.91,18.86,73.07,16a3.2,3.2,0,0,1,4,0q0,.46.07.91C77,19,77.25,21.35,74,21,73,20.58,72.43,20,72.91,18.86Z" transform="translate(63 91)" fill="#ca8f41"/><path d="M58.87-3l1,1.18c0,1.95-1.15,2.79-3,2.88L54.85-2.8A1.57,1.57,0,0,1,56-5C57.67-5.52,58.23-4.14,58.87-3Z" transform="translate(63 91)" fill="#e48c48"/><path d="M56.92,35.07c1.13-1.87,1.14-3.95,1.1-6l.84-.2c.78,1.78,2.24,2.28,4,2.14.44,3.11-2,4.15-4,5.5C57.87,36.56,56.9,36.53,56.92,35.07Z" transform="translate(63 91)" fill="#633b34"/><path d="M-25.1-14.12c1.91-3,4.87-4.63,8.11-5.83,4.79,2.44,4.79,7.21,5.26,11.51A70.13,70.13,0,0,1-11.75,3a6.29,6.29,0,0,1-.36,1.56,32.77,32.77,0,0,1-7.45,8.29c-1.79.68-3.54,1-5-.74s-.3-3.15.65-4.46a4.43,4.43,0,0,0-.37-6.24c-.12-2.47-2.55-3.37-3.61-5.21C-28.92-7.81-26.9-10.94-25.1-14.12Z" transform="translate(63 91)" fill="#2f3566"/><path d="M-13,4.09c-.53-6.4,1.05-12.95-1.54-19.22A25.91,25.91,0,0,0-17-19.95c.73-1.13,1.87-1.1,3-1,1.76.83,4.19.2,5.3,2.44C-9.55-12.14-8.46-5.61-9.94.76-10.49,2.27-10.79,4-13,4.09Z" transform="translate(63 91)" fill="#4c3948"/><path d="M-24,1c4.21,1.55,3.18,4.14,1.46,7-.66,1.09-2.78,1.66-1.37,3.6,1.21,1.65,2.71.33,4.06.49,1,2.39-.45,3.64-2.23,4.73l-2.77,0L-27,10c-.74-.9-.4-2-.43-3C-25.92,5.25-27.36,1.76-24,1Z" transform="translate(63 91)" fill="#43325b"/><path d="M-26.94,6.92-27,10C-31.83.55-31.14-8.1-25.1-14.12c-.58,3.72-2.64,7.2-1.83,11.15C-24.86.33-25.92,3.62-26.94,6.92Z" transform="translate(63 91)" fill="#5a3f42"/><path d="M-9.16-19C-11-19-13-18.74-14-21c2.17-1,4.33-2,6.8-1.79q.06,1.34.11,2.68C-7.56-19.35-7.86-18.22-9.16-19Z" transform="translate(63 91)" fill="#344167"/><path d="M74,22a3,3,0,0,1,3,1.16,22.1,22.1,0,0,1-3.93,29.94,4,4,0,0,1-3.8.47A3.12,3.12,0,0,1,68,51.73c-.4-1.13-.24-2.85-1.93-2.89s-1.67,1.57-1.79,2.82a8.71,8.71,0,0,1-.8,3.65,5.63,5.63,0,0,1-3.62,2.31c-6.6,2-8.7.29-8-6.4C52.38,48,52.91,44.7,55,42c1.08-1.28,2.32-2.4,3.47-3.62C64.07,33.3,68.85,27.46,74,22Z" transform="translate(63 91)" fill="#343465"/><path d="M52.89,50.81a1.38,1.38,0,0,0,.19.45c1.74,1.8-2.57,4.52.29,5.43,3.14,1,6.81,1,9.64-1.69a9.11,9.11,0,0,1,6-2l4.06.06L69,56.75C62.34,57.93,56,60.62,49,59.9l-.94-1C47.88,55.16,49.36,52.38,52.89,50.81Z" transform="translate(63 91)" fill="#533d41"/><path d="M74,22c-3.56,6.93-9,12.25-14.89,17.11A2.1,2.1,0,0,1,59,36l3.88-5c4.46-3.11,6.24-8.44,10-12.12L74,21Q74,21.48,74,22Z" transform="translate(63 91)" fill="#b78a68"/><path d="M55-62.89,58-62c1.2,1.33,1.21,2.85.73,4.58-2.2-1-2.59-3.16-3.69-4.81A4.23,4.23,0,0,1,55-62.89Z" transform="translate(63 91)" fill="#c9c5e6"/><path d="M-23-42.13a8.32,8.32,0,0,0,1.11-4.61c4.14,3.39,4.06,4-.84,6.16Z" transform="translate(63 91)" fill="#b8b1d6"/><path d="M32.77,105H31.2c-.67-8,.72-9,8.7-6-.28,2.33.93,4.88-1,6.95l-1-1.33C35.86,100.86,34.3,102.75,32.77,105Z" transform="translate(63 91)" fill="#e5e6ee"/><path d="M3,105.94c-3.52-.15-5.3-2.78-3.67-5.59,1.2-2.07,2.74-1.6,3.93,0,1.38,1.86.73,3.77-.28,5.6Z" transform="translate(63 91)" fill="#514e63"/><path d="M32.77,105c.08-.8.2-1.6.22-2.4,0-1.31-.06-2.73,1.77-2.86a2.64,2.64,0,0,1,3,2.49,16.79,16.79,0,0,1,.08,2.41c-1.29,1.92-2.63,3.61-5,1.37Z" transform="translate(63 91)" fill="#4e4b66"/><path d="M30.76,81C30.09,77.49,32,76.6,35,76.93c1.75,1.72,1,3.34-.21,4.94C33.44,81.59,31.8,82.69,30.76,81Z" transform="translate(63 91)" fill="#4f4c6a"/><path d="M7.88-60A2.07,2.07,0,0,1,6-61.1C4.53-62.49,3.52-64,4.83-66c.23-1.55-.09-3.31,1.91-4.73C7.22-66.92,8.18-63.53,7.88-60Z" transform="translate(63 91)" fill="#b1b2d9"/><path d="M4.83-66,6-61.1c-2.41.64-2.93-1.67-4.16-2.78a8.06,8.06,0,0,0-5.75-2.3C-1-68,1.92-66.68,4.83-66Z" transform="translate(63 91)" fill="#44455f"/><path d="M11.11,67l.1-1.72c1.11-1.89,3.11-2.36,5-2.74A52.67,52.67,0,0,0,28.06,58.2a8.6,8.6,0,0,1,4.69-.05c2.07,1,4.48,1.22,6.28,2.81l1,1q-.09.49-.21,1c-2.39,1.89-4.48,4.13-6.86,6C25.21,73.42,18.09,70.92,11.11,67Z" transform="translate(63 91)" fill="#383563"/><path d="M33,69c1.3-3.13,3.35-5.41,6.86-6A8,8,0,0,1,33,69Z" transform="translate(63 91)" fill="#554040"/><path d="M47.88,77c1,2.11,2.06,4.28-.07,6.29a3.3,3.3,0,0,1-4.14.26c-1.11-.76-2.21-2.27-1.48-3.79,1.12-2.34,3.26-3.06,5.78-2.69Z" transform="translate(63 91)" fill="#464268"/><path d="M18.14,77.06a5.28,5.28,0,0,1,4.71,1.26q0,2.19,0,4.37C21,85,19,84,17.07,82.83A6.69,6.69,0,0,1,18.14,77.06Z" transform="translate(63 91)" fill="#4f4b71"/><path d="M52.89,50.81A28.15,28.15,0,0,0,48.1,59L45.19,58a1.16,1.16,0,0,1-.49-1.11c.44-1.25,1.26-2.31,1.81-3.51a24.67,24.67,0,0,0,1.85-3.93c-1.28.38-2,1.5-3.07,2.1-2,1.06-4,2.38-6,3.36a16.39,16.39,0,0,1-3.44,1A3.68,3.68,0,0,1,33,55.27c-.66-2.63,1.52-3.45,3.08-4.35A183.47,183.47,0,0,0,52.85,39.68a3,3,0,0,1,3.32,2.43C54.31,44.73,53.9,47.88,52.89,50.81Z" transform="translate(63 91)" fill="#c08d61"/><path d="M45.26,57.12a4.18,4.18,0,0,0-.07.89c-1.5,1.49-3.39.89-5.15.94a6.2,6.2,0,0,1-4.14-.5c-1.36-1.2-1.65-2.36.15-3.42l3-.92C41.28,54.79,43.79,54.88,45.26,57.12Z" transform="translate(63 91)" fill="#694537"/><path d="M36.13,57.92c1.35.14,2.86-.3,3.91,1l-1,2a8.21,8.21,0,0,1-6.2-1.71A2.5,2.5,0,0,1,36.13,57.92Z" transform="translate(63 91)" fill="#c08f64"/><path d="M2.85,62.89C-.89,57.33-4.44,51.67-5.95,45a2.47,2.47,0,0,1,2.82-.5C1.54,49.94,4.46,56.34,7.11,62.89Z" transform="translate(63 91)" fill="#bb8969"/><path d="M7.11,62.89C2.76,57.47-.08,51.2-3,45l.55-.48c3.82-.55,6.47,1.36,8.69,4.16C6.59,50,5.53,50.75,5,51.74,4.6,57,8.67,58.82,12.19,61c-.08,2.34-2.16,1.28-3.25,1.91Z" transform="translate(63 91)" fill="#4f3642"/><path d="M8.95,62.93,12,61.07c3.72-2.05,7.9-2.88,11.82-4.38a5.45,5.45,0,0,1,4.36,2.49c-5.09,3.64-11.27,4.22-17,6.05Z" transform="translate(63 91)" fill="#b58964"/><path d="M-3,45l-2.92,0C-7.6,43.33-7,40.51-9,39c-1.3-.93-3.31-.29-4.31-1.91a2.16,2.16,0,0,1,0-2A25.41,25.41,0,0,0-9.09,31c1-.49,1.73,0,2.41.67a25.66,25.66,0,0,0,4.11,7A5.81,5.81,0,0,1-2,40c.29,1.77.4,3.51-1,4.95Z" transform="translate(63 91)" fill="#ce9740"/><path d="M-13,36.87c1.44.49,3.18.42,4,2.12-4,.18-2.14,3.1-2.15,5.1-4.43-1.28-4.43-1.28-8.68-15.38,2.58-.81,3.32,1.22,4.33,2.82A7.82,7.82,0,0,1-15,32.85C-14.68,34.36-14.39,35.9-13,36.87Z" transform="translate(63 91)" fill="#3b3a4d"/><path d="M-16.15,32c-1.14-1.2-1.75-3-3.68-3.32l-2.2-3.6L-21,22c1-.46,1.72.14,2.41.75,1.33,2.37,3.54,3.77,5.76,5.17a2.32,2.32,0,0,1,.13,1.36C-13.55,30.53-13.83,32.55-16.15,32Z" transform="translate(63 91)" fill="#bb8b64"/><path d="M-19.14,23.08-21,22q0-1,0-2c1.12-3,1.94-6.24,5.92-6.7,3.3,2.28,4.69,7.87,2.43,10.7C-15.15,27.18-17.2,25.08-19.14,23.08Z" transform="translate(63 91)" fill="#3f3160"/><path d="M-16.16,13.92-21,20l-1.12-3.23L-19.86,12c2.43-2.21,4-5.28,6.8-7.11,1.19,1,1.2,2.29,1.08,3.65A7.39,7.39,0,0,1-16.16,13.92Z" transform="translate(63 91)" fill="#ba8865"/><path d="M-.94-26.07l14,.92c4.24,1.58,8.93,1.71,12.94,4-1.58,1.89-3.9,1.27-5.9,1.76-1.36.1-2.69-.29-4-.26C10.39-21,4.26-20-1-23.19Z" transform="translate(63 91)" fill="#b88f68"/><path d="M48.89-26.21l0,2.34c-3.25,3.5-8.21,1.45-11.85,3.69a15.38,15.38,0,0,1-4,.49c-1.89,0-3.81.16-5.56-.82L27-21.13A49,49,0,0,1,48.89-26.21Z" transform="translate(63 91)" fill="#b79070"/><path d="M34.39-36.65c-.74,2.12-3.35,3.18-1.84,5.56.74,1.18,2.33,2.42.49,3.74a3.45,3.45,0,0,1-3.77-.15c-1.43-.91-2.57-2.06-2-4.07C28.35-34.93,29.6-37.9,34.39-36.65Z" transform="translate(63 91)" fill="#352e79"/><path d="M20-20.24c1.83-1.41,4-.44,6-.89h1v.23c.07,3.25-2.71,2.82-4.6,3.56a3,3,0,0,1-1.41-.3A2.91,2.91,0,0,1,20-20.24Z" transform="translate(63 91)" fill="#d89231"/><path d="M12-27a6,6,0,0,1-.9-.11c1.87-3.25,4.62-1.47,7.07-1.46C16.42-26.3,14-27.3,12-27Z" transform="translate(63 91)" fill="#383085"/><path d="M36.66-41.47c-.08,1.2-.72,1.33-1.4,1.27s-1.08-.67-1.08-1.38.59-1.23,1.28-1C36-42.35,36.36-41.75,36.66-41.47Z" transform="translate(63 91)" fill="#233385"/><path d="M-1-23.19A111,111,0,0,1,16.9-20.62c1.2,1,1.13,2.24.68,3.55-1.27,2.16-3.63,2.82-5.6,4A101.93,101.93,0,0,0-3.2-2.6C-4.62-1.36-6,.52-8.35-1.21c-1.87-3.91-.37-7,2.31-9.85,3.23-1.55,2.25-4.46,2.24-7C-4-20.43-4-22.61-1-23.19Z" transform="translate(63 91)" fill="#3e345e"/><path d="M-4.79-11C-7.59-8.21-8.39-4.8-8-1l-.17.67C-8.85.62-9.56,1.55-11,1c-.65-5.35,2.09-10.68,0-16.09-.57-1.5,1.25-2.56,1.79-3.9l2.09-1.08L-7-19C-6.36-16.27-8.34-12.87-4.79-11Z" transform="translate(63 91)" fill="#c18f63"/><path d="M-4.79-11c-5.06-.87-5.1-1-2.17-8l3.17.86C-2.06-15.44-.18-12.76-4.79-11Z" transform="translate(63 91)" fill="#e79124"/><path d="M58.87-3c-1.39-.84-2.83-2.79-4,.21a4.93,4.93,0,0,1-2.94-2.15,4.31,4.31,0,0,1,.76-2.58c1.92-2.84.46-5.53-.38-8.24a12.88,12.88,0,0,1-.46-2c0-1.1-.74-2.31.5-3.21l1.88,0c1.72,1.24,1.41,3.61,2.8,5a.79.79,0,0,1,.31.63q0,.37-.09.37Z" transform="translate(63 91)" fill="#c28957"/><path d="M52.34-21l.39,3c-4.91-1.83-10.2-1.27-15.22-2.46L37-21c3.57-2.69,8.07-1.46,12-2.84C50.07-22.94,51.67-22.52,52.34-21Z" transform="translate(63 91)" fill="#5a3f3c"/><path d="M10.81,1.07c2.6-.13,4.81.57,6.21,3a2.4,2.4,0,0,1,.46,2.37c-2.36,5.79-.38,11.91-1.33,17.81-.82,3.21-2.8,3.53-5.45,2.19a15.36,15.36,0,0,1-4.05-2,3,3,0,0,1-1.1-3.2c.8-1.64,2.9-1.64,3.86-3.07a3.46,3.46,0,0,0,0-2.73c-1.15-1.77-3.7-.86-4.88-2.56a3.44,3.44,0,0,1,.68-3.92C7.67,7.47,10,6,9.42,2.48,9.63,1.76,10.3,1.49,10.81,1.07Z" transform="translate(63 91)" fill="#3b3251"/><path d="M-8-1c5.9-3,10.25-8.31,16.28-11.21,3-1.44,5.78-3.28,8.67-4.94,1.17-.92,2.29-2.07,3.94-.89l1.08.14c.39.31,1,.39,1.12,1C16.76-12.06,8.73-9.79,3-3.95.14-.87-2.4,2.67-7.09,3.18a3.9,3.9,0,0,1-1-4Z" transform="translate(63 91)" fill="#c08f64"/><path d="M53-6.85a2,2,0,0,1-1.09,1.91,214.56,214.56,0,0,1-22.1-11.92A3.67,3.67,0,0,1,33-18.71c6.93,1.31,12.6,5.21,18.3,9A3.55,3.55,0,0,1,53-6.85Z" transform="translate(63 91)" fill="#b98b74"/><path d="M-7,3c3.76-1.7,6-5.61,10-6.94Q3-1.62,3,.7C2.29,2.81-.58,3-1.07,5.33A10.67,10.67,0,0,1-2.52,7.58c-1.38,1.27-2.19,3.09-3.9,4a2.93,2.93,0,0,1-2.89-.5,5,5,0,0,1-.89-3C-10.07,5.81-9.57,3.74-7,3Z" transform="translate(63 91)" fill="#473b47"/><path d="M31.73,1.12l4.37-.06a53.51,53.51,0,0,1-.28,15.24,2.3,2.3,0,0,1-1.92,1.33A4.65,4.65,0,0,1,30.57,16c-.6-.68-1.1-1.45-1.76-2.08-1.2-1-3-.61-4.12-1.88-.71-2.31.67-3.83,2.52-3.74,4.89.25,4.79-2.46,4.07-5.84A2.7,2.7,0,0,1,31.73,1.12Z" transform="translate(63 91)" fill="#3e314d"/><path d="M26.83-14c-3.6,5.44-8.53,7.44-13.76,8.93-.84.24-2.12.39-2.52-.82a1.9,1.9,0,0,1,.64-1.67C15.76-10.62,20.27-13.88,26.83-14Z" transform="translate(63 91)" fill="#313277"/><path d="M41,1.07c3.49-.36,4.22,1.7,4,4.58-.42,6.27.68,12.38,1.93,18.47a3.19,3.19,0,0,1-4.19,0c-1.87-3-1-6.32-1.18-9.52-.15-3.41.19-6.84-.57-10.21A5.22,5.22,0,0,1,41,1.07Z" transform="translate(63 91)" fill="#4e2e44"/><path d="M41,1.07l1,1.76C39,5,38.41,8.05,38.37,11.58c0,4.43,1,9-1,13.28a2,2,0,0,1-2.42.41c-1.2-1.13-1.26-2.63-1.34-4.12A5.93,5.93,0,0,1,34.9,17c.53-5.31-.82-10.75,1.2-15.95Z" transform="translate(63 91)" fill="#784d67"/><path d="M31.73,1.12q0,.32.07.63A5.31,5.31,0,0,1,30.95,3a4.1,4.1,0,0,1-3.13,1.1c-4.44-.71-7.27,2.79-11,4a2,2,0,0,1,0-2.14L17,4C21.36.24,26.37-.19,31.73,1.12Z" transform="translate(63 91)" fill="#b77475"/><path d="M33.13-18l-3.31,1.17-6.71-.07-1.12-1c2-.45,3.89-1,5-3l6.24,0A2.07,2.07,0,0,1,33.13-18Z" transform="translate(63 91)" fill="#cd8a51"/><path d="M-1.88,4.9c.24-3,3-3,4.89-4.2l7.81.37L10,2.34C6,3.25,2.52,6.12-1.88,4.9Z" transform="translate(63 91)" fill="#b88991"/><path d="M43.29,24l3.64.1c1.52,1.93,5.08-.83,5.95,2.6l-1.87.5C46,28.71,44.6,28.12,43.29,24Z" transform="translate(63 91)" fill="#aa5a65"/><path d="M57.23-15,57-16c.14-1.74-.51-4,1.79-4.66,2.56-.71,2.56,2,3.51,3.32,2.81,4,4.71,8.06.72,12.57-1.59.14-.8-2-2-2.24C60.7-10.12,60.16-13.13,57.23-15Z" transform="translate(63 91)" fill="#2b337c"/><path d="M34.9,21.06,35,25c1.54,1.74,1.61,4.49,3.92,5.7a10.61,10.61,0,0,0,8.88,3.36c1.75-.13,3.65-.45,5.18.92l.68.14a6.11,6.11,0,0,0,.19,1,3.23,3.23,0,0,1-.69,4c-4.42,5.15-10.43,8.11-16.06,11.58-1.53.95-2.92,2.13-4.38,3.21-2,2.13-4.54,1.44-7,1.17A125.33,125.33,0,0,1,2.26,44.37a17.76,17.76,0,0,1-5.34-5.06L-3,39c-1.62-4.87-1.11-5.8,3.88-7.08C4.94,33.34,9,34.78,12.51,30.64a4.84,4.84,0,0,1,4.25-.24,4.74,4.74,0,0,1,1.14.85c3.62,2.57,5.19,2,5.79-2.13.35-2.39-.17-5,2.31-6.69,1.72-.86,3.71-.49,5.47-1.17C32.6,21,33.72,20.39,34.9,21.06Z" transform="translate(63 91)" fill="#353268"/><path d="M43.29,24c1.57,3.49,4.87,2.8,7.72,3.19.31,2.68-.69,4.06-3.58,3.83C45.63,30.9,43.8,31,42,31a1.61,1.61,0,0,1-1.37.36c-2.9-1.15-4.38-3.16-3.84-6.37.08-5.59.33-11.19.17-16.78-.11-3.74,1.13-5.66,5-5.36,2,5.13.59,10.5,1,15.74C43.14,20.39,43.2,22.21,43.29,24Z" transform="translate(63 91)" fill="#a9140b"/><path d="M41.15,30.85A2.67,2.67,0,0,1,42,31c1.38,2.76,4,1.75,6.17,2,1.77.22,4.22-1.07,4.87,2-5.26-.39-11.15,1.65-15-3.94C39,30.16,40.07,30.48,41.15,30.85Z" transform="translate(63 91)" fill="#453149"/><path d="M53.19,40.05l.7-4,3-1A2.12,2.12,0,0,0,59,36q0,1.53.08,3.07l-2.92,3Z" transform="translate(63 91)" fill="#c48139"/><path d="M-7,3A8.57,8.57,0,0,0-9.26,8.07a2.2,2.2,0,0,1-2.61,1.65A2.29,2.29,0,0,1-13,9q0-2-.07-4.07A4,4,0,0,0-13,4.09L-11,1-8.09-.84A5.16,5.16,0,0,1-7,3Z" transform="translate(63 91)" fill="#d89344"/><path d="M-26.94,6.92q0-4.94,0-9.89c2.79,0,4.66.64,2.91,4C-26,2.47-23.85,6-26.94,6.92Z" transform="translate(63 91)" fill="#2d3080"/><path d="M69,53c-1.56,2-3.73,2.14-6,2q0-2,0-4a4.4,4.4,0,0,1,6,0Z" transform="translate(63 91)" fill="#393389"/><path d="M69,51H63c-.08-2.27.51-4.07,3.25-3.93C68.72,47.22,69,49,69,51Z" transform="translate(63 91)" fill="#3d3651"/><path d="M25,55l7.72-.12,3.29.18a2.28,2.28,0,0,0,.08,2.9l-3.3,1.33-4.61-.07c-1.84.13-3.08-1-4.26-2.14l-.38-.59C23.6,55.49,23.53,54.44,25,55Z" transform="translate(63 91)" fill="#d39441"/><path d="M45.26,57.12c-2.18-.78-4.82-.6-6.21-3a17.92,17.92,0,0,1,5.81-3.21c2.38-.05,2.9,1.18,2.23,3.23A3.55,3.55,0,0,1,45.26,57.12Z" transform="translate(63 91)" fill="#54384e"/><path d="M47.1,54.12a3.55,3.55,0,0,0-2.23-3.23c1.27-1.83,3.06-2.91,5.73-4.22A18.31,18.31,0,0,1,47.1,54.12Z" transform="translate(63 91)" fill="#6f4028"/><path d="M24,57c-3.4,3-7.49,4-11.92,4-5.6-.55-9.28-5.2-8-10.11a3.8,3.8,0,0,1,4.6.48C11.07,53.55,14,53.81,17,53.71c2.65.38,5.43.49,6.94,3.27Z" transform="translate(63 91)" fill="#393660"/><path d="M23.95,57l-6.84-2.08C13,53.66,8.81,52.69,6,49.06,3.15,47.32.71,44.74-3,45q0-2.82-.06-5.64C5.59,45.79,15.48,50.08,25,55A2.35,2.35,0,0,0,23.95,57Z" transform="translate(63 91)" fill="#bb8e6e"/><path d="M6,49.06l11.13,5.85c-3.53.36-6.9.13-9.49-2.75A4.36,4.36,0,0,0,4,51Z" transform="translate(63 91)" fill="#4f3744"/><path d="M-12,9.06l2.79-1,.43,2.86c2.25,5.45,1.15,11.43,2.77,17,.18,1.51.27,3-1.14,4.06l-1.74-1-.68,0c-1.27-.45-2.62-.78-3.39-2V28.2c.93-5.14,1.86-10.26,0-15.43C-13.45,11.48-12.74,10.21-12,9.06Z" transform="translate(63 91)" fill="#bc8b63"/><path d="M-7.2,32l.08-4c-.08-2,1.46-1.86,2.7-2.16a5.7,5.7,0,0,1,3,.55c1.45,1,1.91,2.68,2.94,4,.47.8,1,1.58.52,2.58-4.75-.55-5.37,2.33-5,6C-6,37.58-6.65,34.81-7.2,32Z" transform="translate(63 91)" fill="#4a3a49"/><path d="M-8.94,31c.17,2.9-1.19,4.27-4.1,4.09l-.55-.7c0-4.2.47-4.54,4.59-3.36Z" transform="translate(63 91)" fill="#f89a01"/><path d="M-13,36.87c-2.74.06-3.19-1.66-3-3.87,1.92-.71,2.11,1.15,3,2l0,.06Z" transform="translate(63 91)" fill="#b7865c"/><path d="M-13,35l-3-2a2.92,2.92,0,0,1-.16-1L-13,28.89c1.69,0,3.33.16,4,2.11C-12.11,30.55-13.45,31.88-13,35Z" transform="translate(63 91)" fill="#e79533"/><path d="M-12,9.06q.56,7.37,1.12,14.74c.14,1.85.29,3.71-2.07,4.39-3.38-.11-5.08-2.23-6.14-5.12,2,0,3.89,3.59,5.82.19,1.62-2.85,0-7.94-2.84-9.35L-13,9A8.68,8.68,0,0,1-12,9.06Z" transform="translate(63 91)" fill="#523c39"/><path d="M20.9-18.06,17-17.17q0-1.73-.06-3.46l3.1.39A2.25,2.25,0,0,1,20.9-18.06Z" transform="translate(63 91)" fill="#724a28"/><path d="M33.13-18q0-1.42.1-2.83L37-21l.17.16c3.4,2,6.93,3.86,10.27,6C50-13.26,51.53-13.68,53-16c1.21,3.05,4.33,6.11,0,9.15C47.07-11.82,40.15-15,33.13-18Z" transform="translate(63 91)" fill="#553a37"/><path d="M53-16c-.59,5-1.14,5.27-5,2.63-3.64-2.48-8.55-3.13-10.87-7.51,5.34.18,11.07-1.75,15.59,2.88Z" transform="translate(63 91)" fill="#363465"/><path d="M-1.88,4.9C2.07,4,5.61,1.26,10,2.34c2,4.22-.12,6-4,6.76-2.14.59-2.39,2.91-3.8,4.18a3.72,3.72,0,0,1-1.28.53,4,4,0,0,1-2.12-.33A5.43,5.43,0,0,1-3.82,10,3.81,3.81,0,0,1-3.08,7.2Z" transform="translate(63 91)" fill="#9e1813"/><path d="M17,31H15c-1.83-2,.88-4,0-6,0-4.77,0-9.54,0-14.3,0-1.88,0-3.64,1.85-4.76L17,8.14c2.39,3.09,1.07,6.69,1.31,10.06.2,2.8,0,5.62.06,8.43C18.43,28.25,18.29,29.82,17,31Z" transform="translate(63 91)" fill="#844e5b"/><path d="M10.79,14.93l.08,4c-2.65.73-5.28,1.87-8,.33a3.66,3.66,0,0,1-.11-4.43C5.43,13.41,8.12,13.77,10.79,14.93Z" transform="translate(63 91)" fill="#8b1d10"/><path d="M6.93,23.93l3.93,1.14a1.54,1.54,0,0,1,.24,2.18c-3.19,1.79-5.83.54-8.34-1.48-.72-.86-1.32-1.75-.81-3C4,21.34,5.39,23,6.93,23.93Z" transform="translate(63 91)" fill="#a9595a"/><path d="M10.83,27q0-1,0-1.91c1.39.17,2.83,3,4.16-.08,2.22,2,0,4,0,6l-2,0a3.39,3.39,0,0,1-2.52-2.1A2.22,2.22,0,0,1,10.83,27Z" transform="translate(63 91)" fill="#5b3452"/><path d="M10.79,14.93l-7.73.25c-1.5.11-2.28-.42-1.84-2A1.5,1.5,0,0,0,1.94,13a2.35,2.35,0,0,1,3-.2C7,13.43,9.78,11.72,10.79,14.93Z" transform="translate(63 91)" fill="#b16c78"/><path d="M2.94,18.93h7.93C9.61,20.49,7.7,20.5,6,21c-2,.08-3.8,1.22-5.82,1.31a2.08,2.08,0,0,1-.83-1.19C-.56,18.54.62,17.77,2.94,18.93Z" transform="translate(63 91)" fill="#5f1016"/><path d="M1,21.82c1.39-1.91,3-2.67,5-.84l.95,3L2.12,23A1.18,1.18,0,0,1,1,21.82Z" transform="translate(63 91)" fill="#722c2e"/><path d="M5,12.8l-3,.2C2.37,10.73,3,8.67,6,9.1A6,6,0,0,0,5,12.8Z" transform="translate(63 91)" fill="#541c30"/><path d="M-3.92,26.9c-1.16.11-2.41-.06-3.2,1.11-2-5.56-2.13-11.29-1.71-17.08h2.62c.86,1.61,1.17,3.46,2.16,5C-3.74,19.6-3,23.24-3.92,26.9Z" transform="translate(63 91)" fill="#7b3d3b"/><path d="M-5.14,14.89c-3.25-.54-1.19-2.51-1.07-4A4.48,4.48,0,0,1-3.08,7.2q0,1.38.05,2.76C-3.68,11.63-3.19,13.79-5.14,14.89Z" transform="translate(63 91)" fill="#a26370"/><path d="M17,31l.2-4.09c.83-3.89.14-7.86.75-11.8.82-5.31.73-5.4,5.54-2.68a4.06,4.06,0,0,1,1.24.54c1.9,1.22,4.47.42,6.24,2l2.18,2c.12,2.53-1.77,3.06-3.58,3.24C25.35,20.64,24,23,23.91,27c-.15,4.78-2,5.72-6.9,4.16Z" transform="translate(63 91)" fill="#a81512"/><path d="M17,31.11c4.39.49,6.56-1,6.05-5.86C22.64,21.17,24.83,19,29,19.07c1.78,0,3.32-.27,4.13-2.09l1.79,0q0,2,0,4.05L32,22c-2,.23-4.23-.78-6,1-1.36,2.12-.91,4.5-1,6.81s-1.21,4.31-3.58,4.85C18.72,35.28,17.5,33.51,17,31.11Z" transform="translate(63 91)" fill="#4a293a"/><path d="M30.85,2.35l.94-.59A7.6,7.6,0,0,1,33,6c-.13,2.46-.43,4.38-3.81,3.23-2.2-.74-4,0-4.16,2.75a.81.81,0,0,1,.28.74q-.07.4-.18.4a.76.76,0,0,1-1.1-.18h-.13c-2.57-3.3-2.33-5,1.19-6.58C27.32,5.39,29.81,4.94,30.85,2.35Z" transform="translate(63 91)" fill="#55232d"/><path d="M24.05,13a5,5,0,0,0,.95-.28c1.68-.11,3.38-.51,5,.29L30.93,15C28.65,14.29,25.38,16.87,24.05,13Z" transform="translate(63 91)" fill="#ba7676"/><path d="M30,13l-5-.29A5.28,5.28,0,0,1,25,12C26.71,12.23,28.6,11.36,30,13Z" transform="translate(63 91)" fill="#3f364f"/><path d="M41.15,30.85,38,31c-3.26-.91-2.91-3.57-2.94-6h1.74C38,27.13,38.45,29.82,41.15,30.85Z" transform="translate(63 91)" fill="#653552"/><path d="M30.85,2.35c.42,2.7-.16,4.55-3.43,4.69-4,.17-5.38,2.14-3.5,5.92-2.74,3.46-2.54-.92-4.09-1.66-2.25,5.06-1,10.61-2.66,15.61Q17.11,17.52,17,8.13C20.08,2.47,25.72,3,30.85,2.35Z" transform="translate(63 91)" fill="#a41610"/><path d="M11,29,13,31c-4.11,5-5.77,5.34-11,1.93L1,31.1C4,28.8,7.69,29.79,11,29Z" transform="translate(63 91)" fill="#48293b"/><path d="M26,23c1.52-3.28,3.72-2.34,6-1C30.24,23.8,28,22.68,26,23Z" transform="translate(63 91)" fill="#3e304d"/><path d="M11,29C8.33,32.81,4.29,30.21,1,31.1c-1.65-.77-2.06-2.24-2.18-3.86l.27-.58a9.62,9.62,0,0,1,4-1.71,10.25,10.25,0,0,0,7.71,2Q10.91,28,11,29Z" transform="translate(63 91)" fill="#951e17"/><path d="M-5.14,14.89C-5,13-4.6,11.23-3,10l2,3a38.84,38.84,0,0,0-.65,9.26c-.07,1.62,1.28,3,.69,4.73l-.22.28-2.73-.33C-5.64,23-4.69,18.89-5.14,14.89Z" transform="translate(63 91)" fill="#971d17"/><path d="M-3,23c.65-3.34-1.83-7.29,2-10l2.23.17,1.84,2Q3,17.06,2.94,18.93c-2,0-3.36.58-2.77,3A2.34,2.34,0,0,1-3,23Z" transform="translate(63 91)" fill="#bf0b09"/><path d="M-3,23,.18,21.91A3.15,3.15,0,0,0,1,21.82L2.12,23l1,2C2.3,26.73.82,27.17-1,27-1.6,25.62-3.14,24.73-3,23Z" transform="translate(63 91)" fill="#c10f04"/></svg>