<svg xmlns="http://www.w3.org/2000/svg" viewBox="0 0 474.14 663.76"><title>itu</title><path d="M228,38.58l3,0c.63,0,.93.33,1,1.09l.62,36.06c0,.74-.31,1.12-.94,1.14l-3,.05c-.31,0-.41.21-.41.53l.06,2.08c0,.3.13.5.41.49L244,79.75a.51.51,0,0,0,.47-.51l0-2.14a.48.48,0,0,0-.5-.49l-3,.1c-.66,0-.94-.37-.94-1.11l-.67-36.07c0-.75.31-1.14.94-1.14l3,0c.29,0,.46-.23.46-.57l-.06-2.07a.46.46,0,0,0-.49-.49l-15.17.3a.42.42,0,0,0-.46.47l.07,2.1C227.57,38.41,227.68,38.58,228,38.58Z" fill="#8d734a"/><path d="M252,79.5l13.52,4.2c.27.08.46-.05.51-.35l.67-2c.06-.28,0-.5-.29-.59l-1.76-.56c-.63-.2-.84-.62-.61-1.33L268,65.93l3.42-2.26,4,18.76c.24.64-.16,1-.85.86l-1.79-.58c-.24-.07-.42,0-.48.36l-.63,2c-.08.28,0,.49.21.59l13.73,4.22c.23.08.41,0,.52-.36l.55-2c.16-.25.07-.51-.18-.53l-1.23-.38a2.41,2.41,0,0,1-1.59-2.06l-5.82-25,15-9.79a1.85,1.85,0,0,1,1.71-.36l2.21.73a.44.44,0,0,0,.58-.37l.63-2c.06-.28,0-.53-.26-.57l-11.94-3.69c-.26-.11-.44.08-.53.37l-.63,2c-.06.32,0,.56.25.61l2.64.78a.58.58,0,0,1,.11,1.12L269.6,60.44l4.88-16.09c.26-.72.6-1,1.27-.81l2.8.87a.41.41,0,0,0,.6-.31l.61-2a.43.43,0,0,0-.33-.6L264.9,37c-.3-.08-.45.05-.57.35l-.59,2c-.1.28,0,.52.25.58l2.83.9c.59.16.8.61.59,1.33L257,76.67c-.18.72-.6,1-1.18.8L253,76.58c-.32-.08-.53,0-.59.34l-.63,2C251.67,79.24,251.73,79.46,252,79.5Z" fill="#8d734a"/><path d="M174.86,51.07l2.86-.86c.57-.2,1,.05,1.19.76l10.5,34.53c.16.72,0,1.14-.61,1.37l-2.87.85c-.26.06-.35.31-.23.62l.58,1.94c.08.33.27.48.58.39l11.52-3.57a.42.42,0,0,0,.29-.6l-.58-2c-.12-.34-.28-.45-.57-.36l-2.81.83c-.65.26-1,0-1.26-.75l-8.74-28.87,15.7,16.61c3.45,3.64,6.8,7.37,10,11,.18.18.42.28.56.18l6.92-2.07c.3-.09.34-.31.26-.61l-11.5-38c-.22-.72,0-1.18.6-1.36l2.82-.87c.33-.08.34-.31.25-.61l-.58-2c-.1-.32-.25-.46-.56-.38l-11.58,3.59c-.22,0-.26.26-.18.58l.59,2c.1.31.28.48.51.43l2.89-.92c.62-.19,1,0,1.24.77l8.74,28.83L195.49,55.67c-3.36-3.6-6.81-7.38-9.67-10.7-.21-.25-.44-.39-.66-.3L174,48.12a.42.42,0,0,0-.28.58l.62,2C174.39,51,174.6,51.18,174.86,51.07Z" fill="#8d734a"/><path d="M235.85,32.09c1.9,0,3.18-1.69,3.07-3.87a3.51,3.51,0,0,0-3.46-3.57,3.32,3.32,0,0,0-3.09,3.76C232.49,30.53,234,32.16,235.85,32.09Z" fill="#8d734a"/><path d="M41.85,253.59l2.05.48c.26,0,.5-.05.51-.36l.71-2.94c.12-.6.56-.82,1.27-.67l24.85,5.83c11.07,2.54,15.5-1.14,17.56-10.28,2-8.74-.85-14.35-11.85-16.91L52.63,223c-.77-.18-1.06-.54-.92-1.15l.61-2.69c.09-.25-.08-.41-.37-.47l-2-.48c-.33-.08-.51,0-.58.25l-2.65,11.64c-.07.23.06.34.39.44l2,.49c.3,0,.48,0,.54-.28l.63-2.71c.14-.64.59-.88,1.3-.7l24.49,5.76c7.11,1.61,10.2,4.62,8.93,10.24-1.3,5.78-5.23,6.9-12.37,5.23l-24.57-5.74c-.77-.19-1-.55-.86-1.22l.64-2.89a.5.5,0,0,0-.38-.62l-2-.44a.46.46,0,0,0-.62.36l-3.37,15C41.41,253.31,41.57,253.48,41.85,253.59Z" fill="#8d734a"/><path d="M128.55,82.43a.46.46,0,0,0,.67.13l2.41-1.81c.44-.39.92-.28,1.39.31l21.46,28.8c.43.61.43,1.09-.07,1.47L152,113.13c-.28.21-.21.44-.05.65l1.25,1.71c.16.25.39.34.63.14l11.28-8.6c.27-.2.23-.38,0-.64l-1.24-1.7c-.19-.23-.42-.31-.62-.13l-1.48,1.14c-.54.39-1,.28-1.46-.31l-8-10.79.18-4.13,17.4,7.75c.7.16.78.71.19,1.14l-1.52,1.17c-.2.13-.2.36,0,.61l1.26,1.67c.18.25.39.3.58.2L182,94.26c.18-.2.12-.37,0-.64L180.65,92c-.14-.28-.38-.34-.56-.17l-1,.77a2.35,2.35,0,0,1-2.57.08L153,82.71l1-18a1.82,1.82,0,0,1,.68-1.6l1.88-1.43c.25-.2.25-.38.06-.63l-1.24-1.7c-.24-.22-.4-.31-.66-.12l-10,7.6c-.17.13-.11.36,0,.61l1.26,1.66c.17.25.39.31.58.17l2.21-1.66c.54-.42,1-.08.91.52L148.95,90l-10-13.47c-.41-.61-.41-1.07.1-1.48l2.37-1.81a.46.46,0,0,0,.08-.7l-1.23-1.67a.46.46,0,0,0-.68,0l-12.19,9.2a.48.48,0,0,0,0,.69Z" fill="#8d734a"/><path d="M54.22,211.19c.32.08.56,0,.66-.25l1-2.91c.16-.55.65-.75,1.33-.49L90.9,219.28c.71.26.92.66.75,1.22l-1,2.87a.39.39,0,0,0,.31.58l2,.73c.31.06.52,0,.57-.29L103,196.83,89,191.06c-.28-.09-.5-.06-.58.26l-1.51,4.36a.37.37,0,0,0,.35.49l6.42,2.59c2.93,1.2,4.08,1.73,1.86,8.12l-1.82,5.47L59.57,200.5c-.71-.24-.93-.67-.72-1.3L60.59,194a.45.45,0,0,0-.29-.64l-2-.66a.44.44,0,0,0-.62.3L52,209.91c-.14.29,0,.47.3.58Z" fill="#8d734a"/><path d="M339.35,114.9,356.7,96.7c.51-.52,1-.58,1.42-.13l2,1.89c.18.22.39.14.57-.05l1.48-1.53c.2-.23.21-.42.08-.61L353.72,88c-.15-.19-.36-.12-.59.07l-1.43,1.55c-.23.22-.27.41-.08.6l2,2a1,1,0,0,1-.1,1.48l-17.45,18.25c-5.07,5.37-9.2,6.48-13.31,2.48s-3.18-8.08,2-13.41L342.26,82.6c.52-.56,1-.61,1.47-.14l2.07,2.09a.52.52,0,0,0,.72,0L348,83a.49.49,0,0,0,0-.7L337,71.63c-.21-.25-.42-.2-.64.06l-1.45,1.5a.4.4,0,0,0,0,.66l2.11,2.1c.44.44.44.89-.12,1.44l-17.7,18.5c-7.91,8.33-7,14.07-.31,20.59C325.27,122.69,331.49,123.11,339.35,114.9Z" fill="#8d734a"/><path d="M97.21,119.3c.31.2.48.23.68,0l1.9-2.37c.37-.45.86-.51,1.41,0L129,139.64c.58.46.67,1,.27,1.43l-1.9,2.34a.49.49,0,0,0,.11.67l1.64,1.33a.45.45,0,0,0,.66-.06l18.38-23a.41.41,0,0,0-.08-.66l-8.61-7.27c-.25-.23-.51-.18-.72.11l-3.12,3.88c-.15.17-.07.4.12.58l2.82,2.32c2.47,2,2.69,3.67,1,5.84L134,134.07l-13.26-10.85,2.69-3.34c.89-1.1,1.63-1.14,2.89-.08l1.86,1.5c.25.18.45.18.62,0l2.48-3.14c.21-.22.1-.44-.12-.6-3.48-2.62-6.76-5.35-10.07-8.27-.25-.22-.46-.22-.6,0l-2.53,3.17c-.16.19-.08.41.14.6l1.91,1.56c1.27,1,1.4,1.78.49,2.9l-2.66,3.37-12.22-10,5.57-7c1.8-2.22,3.34-2.22,5.77-.17l2.83,2.29c.27.2.44.2.6,0l3.16-4a.46.46,0,0,0-.06-.69l-9.12-7.09c-.21-.22-.45-.17-.65.05-2.93,3.72-4.82,6.48-7.47,9.71L95.53,117.35c-.22.25-.13.44.12.67Z" fill="#8d734a"/><path d="M83.32,162c.27.14.48.14.61-.11l2.47-4.34c.18-.31.1-.47-.17-.66l-3.57-2c-2.74-1.62-3.27-3.15-1.9-5.54l1.68-3,31.3,18.24a1,1,0,0,1,.44,1.42l-2.63,4.67c-.13.22-.06.42.22.59l1.82,1c.26.14.45.14.59-.09L124,154.86c.18-.28.11-.48-.16-.67l-1.79-1c-.27-.14-.5-.11-.63.11l-2.64,4.67c-.29.56-.79.61-1.45.26L86.09,139.95l1.63-2.9c1.4-2.42,3-2.75,5.76-1.1L97,138c.27.14.49.14.63-.08l2.45-4.35a.46.46,0,0,0-.16-.66l-10.51-5.82a.41.41,0,0,0-.64.12c-2.19,4.22-3.34,6.37-5.47,10.1l-4.59,8.06c-2.12,3.68-3.11,5.33-5.84,9.78a.37.37,0,0,0,.17.6Z" fill="#8d734a"/><path d="M408.38,180.16l1.5,3.93c.11.31.33.36.61.22l2-.74a.44.44,0,0,0,.28-.55l-5.6-14.73c-.08-.3-.32-.33-.59-.22l-1.95.75c-.3.08-.41.28-.3.56l.61,1.64c.21.49,0,1-.61,1.42l-26.16,20c-2,1.47-4.43,3.31-6.69,4.71-.31.1-.38.23-.28.46l2.43,6.35c0,.28.28.36.58.31,5.15-.92,9-1.14,13.56-1.55L415,200.53c.74-.08,1.16,0,1.38.67l.67,1.7c.1.3.35.36.62.25l1.91-.75c.33-.14.43-.28.33-.59l-4.07-10.72c-.1-.3-.31-.32-.61-.25l-1.91.76c-.3.14-.47.31-.31.61l1.15,3c.22.64-.08,1-.84,1.06l-32.56,3.47,26.36-19.86C407.7,179.37,408.15,179.49,408.38,180.16Z" fill="#8d734a"/><path d="M419.68,211.85l.74,3c.15.57-.17,1-.88,1.16l-34.61,8.75c-.74.15-1.15,0-1.27-.65l-.74-2.94a.42.42,0,0,0-.58-.3l-2,.51c-.28.1-.43.23-.37.53L387,250.59c.06.3.22.38.58.3l11-2.56a.48.48,0,0,0,.33-.62l-1.19-4.92c-.1-.22-.29-.31-.61-.22l-3.47.85c-3.09.79-4.51,0-5.2-2.65l-2.13-8.69,16.52-4.2,1,4.2c.33,1.36-.08,2-1.68,2.37l-2.31.57c-.32.09-.43.26-.4.51l1,3.9c.07.3.28.39.57.3,4.15-1.26,8.27-2.28,12.57-3.17.28-.06.41-.22.35-.48l-1-4c0-.2-.26-.31-.53-.2l-2.39.55c-1.62.42-2.24.1-2.61-1.29l-1-4.22,15.33-3.84,2.1,8.74c.71,2.82-.22,4-3.32,4.82l-3.49.87c-.3.05-.46.24-.41.49l1.27,4.89a.41.41,0,0,0,.55.36l11.05-3.06a.47.47,0,0,0,.41-.58c-1.2-4.63-2.17-7.8-3.17-11.89l-4.17-16.63c0-.33-.26-.39-.53-.33l-2,.53C419.77,211.37,419.61,211.57,419.68,211.85Z" fill="#8d734a"/><path d="M429,250.72l.43,3c.08.64-.21,1-.91,1.12l-35.27,5.64c-.73.09-1.12-.15-1.24-.75l-.48-3c0-.33-.21-.45-.51-.36l-2.07.3c-.31.06-.47.2-.44.51L391,272.38c0,.29.23.49.54.41l2-.34c.33,0,.5-.21.43-.53l-.43-3c-.15-.66.15-1.05.9-1.13l16.24-2.62.51,3.31a123.21,123.21,0,0,1-18.69,11.75.52.52,0,0,0-.25.55l1.41,9c.08.31.28.36.55.34l2-.34c.33,0,.46-.2.43-.51l-.26-1.5a1.18,1.18,0,0,1,.78-1.39A117.54,117.54,0,0,0,413,275.49c1.56,3.76,5.67,7.52,12.61,6.37,10.35-1.66,10.23-7.51,8.9-16L432,250.25c0-.34-.23-.39-.56-.37l-2,.33C429.14,250.27,428.93,250.42,429,250.72Zm1.54,12.3.39,2.48c.79,5,.12,7.59-6.62,8.67-7.45,1.2-9.31-3.14-9.87-6.84l-.44-2.64,15.28-2.45C430.08,262.11,430.44,262.37,430.57,263Z" fill="#8d734a"/><path d="M436.69,327.9c-.3,0-.52.15-.52.47v3c0,.62-.35.92-1.1.92H399.4c-.74,0-1.07-.3-1.07-.92v-3c0-.32-.22-.47-.54-.47h-2.07c-.32,0-.45.15-.45.47v15.38a.4.4,0,0,0,.45.45h2.07c.32,0,.54-.17.54-.45v-3c0-.69.33-1,1.07-1h35.67c.75,0,1.1.29,1.1,1v3a.46.46,0,0,0,.52.45h2.06a.46.46,0,0,0,.51-.45V328.36a.45.45,0,0,0-.51-.47Z" fill="#8d734a"/><path d="M413.37,306.74c-2.33,6.12-4.25,7.65-8.39,7.84-3.62.23-7.41-.85-7.68-6-.29-5.28,3.36-7.4,9.31-7a.36.36,0,0,0,.47-.4l-.33-6.09c0-.18-.2-.3-.53-.33-9.37-.5-12.7,4.69-12.27,13.63.58,10.54,5.67,14.23,13.63,13.78,6.78-.39,10.41-4.21,13.63-13.4,2.18-5.77,3.85-6.61,7.75-6.83,4.26-.18,6.47,1.61,6.68,5.43.28,4.79-3.46,6.24-8.67,6-.33-.08-.48.08-.48.42l.29,5.94a.6.6,0,0,0,.53.41c9.3.51,12.05-4.35,11.63-12.92-.41-7.91-4.48-13.2-12.26-12.8C419.33,294.86,416.49,297.89,413.37,306.74Z" fill="#8d734a"/><path d="M361.25,85.66a3.42,3.42,0,0,0,.16-4.85,3.34,3.34,0,0,0-4.87.31,3.53,3.53,0,0,0-.2,5C357.64,87.38,359.74,87.18,361.25,85.66Z" fill="#8d734a"/><path d="M352.69,77.28a3.47,3.47,0,0,0,.17-4.9,3.36,3.36,0,0,0-4.9.33,3.42,3.42,0,0,0-.26,5C349.1,79.07,351.16,78.84,352.69,77.28Z" fill="#8d734a"/><path d="M340.14,132.61c-.58.38-1.1.35-1.41-.15L337,129.94a.43.43,0,0,0-.64,0l-1.72,1.23c-.24.2-.31.37-.16.61l6.94,10c.19.3.41.25.62.12l1.72-1.23c.26-.2.33-.38.16-.64l-1.68-2.46c-.39-.53-.27-1,.38-1.44l24.46-17.32L356.3,139c-2.35,4.48-4.82,8.85-7.25,13.08a.54.54,0,0,0,0,.64l4.14,6c.21.25.39.25.67.05L386,135.94c.56-.46,1.07-.43,1.45.16l1.7,2.39c.16.28.36.28.61.08l1.72-1.2c.25-.18.31-.38.16-.62l-6.93-10a.36.36,0,0,0-.62,0l-1.72,1.2c-.22.14-.33.39-.18.56l1.71,2.5c.4.56.26,1-.34,1.42l-24.41,17.31,10.88-20.42c2.38-4.41,4.84-8.91,7.08-12.66a.69.69,0,0,0,.12-.74l-6.74-9.66c-.16-.25-.38-.25-.64-.08l-1.73,1.24a.43.43,0,0,0-.15.59l1.76,2.5c.35.5.25,1-.37,1.4Z" fill="#8d734a"/><path d="M395.4,151.7c.26.55,0,1-.6,1.36l-32.08,15.78c-.68.35-1.15.22-1.39-.33L360,165.77c-.13-.25-.33-.3-.63-.16l-1.87.94a.36.36,0,0,0-.2.58L364,181a.49.49,0,0,0,.65.26l1.84-1a.46.46,0,0,0,.24-.66l-1.28-2.68c-.3-.61-.13-1,.55-1.36L398,159.73a.91.91,0,0,1,1.41.44l1.3,2.62a.39.39,0,0,0,.61.23l1.89-.94a.42.42,0,0,0,.2-.64l-6.63-13.8c-.16-.31-.38-.33-.66-.2l-1.86.89c-.3.15-.39.34-.23.64Z" fill="#8d734a"/><path d="M408.3,155.14a3.48,3.48,0,0,0,1.81-4.59,3.24,3.24,0,0,0-4.59-1.38,3.64,3.64,0,0,0-1.93,4.78C404.39,155.63,406.4,156.14,408.3,155.14Z" fill="#8d734a"/><path d="M435.16,390.28l-2.06-.34c-.35-.05-.52,0-.55.34l-.48,3c-.1.61-.49.84-1.2.73l-35.29-5.63c-.74-.13-1-.47-.92-1.09l.45-3c.07-.31-.1-.48-.41-.53l-2-.31a.39.39,0,0,0-.54.36l-4.57,29.25c-.07.25.09.44.39.47l11.07,2a.44.44,0,0,0,.57-.4l.76-5c.06-.22-.1-.39-.44-.42l-3.54-.56c-3.13-.52-4.16-1.81-3.75-4.56l1.42-8.85,16.8,2.72-.63,4.27c-.24,1.37-.87,1.78-2.5,1.51l-2.34-.36c-.33,0-.51,0-.55.28l-.61,4c-.06.29.11.43.41.49,4.32.5,8.54,1.2,12.79,2,.31.06.54,0,.54-.28l.61-4a.42.42,0,0,0-.38-.46l-2.44-.4c-1.61-.25-2.09-.84-1.85-2.2l.65-4.29,15.58,2.48-1.41,8.87c-.46,2.93-1.83,3.62-5,3.12l-3.48-.58c-.31,0-.54.08-.57.31l-.83,5a.51.51,0,0,0,.44.56l11.4,1.58a.42.42,0,0,0,.51-.39c.71-4.72,1-8,1.69-12.21l2.65-17A.38.38,0,0,0,435.16,390.28Z" fill="#8d734a"/><path d="M284,599.11c3.75-1.07,6.32-4.37,6.32-9.16,0-6.89-3.57-10.34-10.48-10.34-7.28,0-11.86,3.35-11,12.07.07.22.23.42.38.42h5.79a.4.4,0,0,0,.36-.42c-.51-5.44.89-9,4-9,2.8,0,4,2.5,4,7.43,0,5.62-2.81,7.49-5.63,7.49H276.3c-.22,0-.36.16-.36.44v2.71c0,.3.14.46.36.46h1.93c3.07,0,6.18,1,6.18,8.39,0,5.56-2,8.38-4.73,8.38-3.49,0-4.77-3.34-4.26-8.21,0-.28-.15-.41-.36-.41h-5.79c-.15,0-.31.14-.38.41C268,618.3,272.72,621,279.55,621c6.62,0,11.94-3.66,11.94-12.17C291.49,602.47,287.94,599.55,284,599.11Z" fill="#8d734a"/><path d="M439,351.27,427,350c-.28,0-.48.05-.48.38l-.43,5a.4.4,0,0,0,.43.49l4.11.35c3.13.28,4.26,1.45,4,4.2l-.28,3.4-35.95-3.21c-.76-.05-1.1-.41-1-1.08l.47-5.38c0-.23-.16-.4-.47-.4l-2.08-.18c-.28,0-.49.07-.53.33l-1.73,20c0,.34.17.48.49.53l2,.13c.32.06.49,0,.55-.37l.49-5.36c0-.58.4-.89,1.16-.85l36,3.23-.31,3.32c-.21,2.78-1.53,3.72-4.71,3.44l-4.09-.29a.37.37,0,0,0-.53.28l-.42,5a.45.45,0,0,0,.42.53l12,.81c.31,0,.49-.06.52-.36.25-4.79.4-7.2.75-11.49l.81-9.27c.35-4.29.58-6.18,1.22-11.38C439.39,351.45,439.25,351.32,439,351.27Z" fill="#8d734a"/><path d="M261.5,593.08H249.42c-3.09,0-6.25-.09-10.23-.19-.28,0-.37.1-.37.41l-.16,11.92c0,.27.1.44.32.44h4.15c.21,0,.33-.17.33-.44v-3.34c0-3.39,1.38-3.67,3.27-3.67h10.76a362.77,362.77,0,0,0-14.36,34.65.48.48,0,0,0,.33.66H250c.16,0,.27-.12.31-.38,2.4-11.3,6.07-22.79,11.54-37.35v-2.19C261.88,593.25,261.77,593.08,261.5,593.08Z" fill="#8d734a"/><path d="M230.58,593.08H218.45c-3.08,0-6.18-.09-10.19-.19-.27,0-.36.1-.36.41l-.17,11.92c0,.27.11.44.32.44h4.17c.22,0,.32-.17.32-.44v-3.34c0-3.39,1.39-3.67,3.29-3.67h10.78a361.2,361.2,0,0,0-14.38,34.65.47.47,0,0,0,.32.66h6.54c.23,0,.3-.12.36-.38,2.41-11.3,6.07-22.79,11.54-37.35v-2.19C231,593.25,230.87,593.08,230.58,593.08Z" fill="#8d734a"/><path d="M415.07,467c-.31-.11-.49,0-.61.21l-1,2.83c-.24.6-.66.79-1.36.48l-33.53-12.32c-.7-.25-.94-.67-.75-1.25l1.07-2.8c.13-.34,0-.52-.32-.63l-2-.73a.42.42,0,0,0-.59.25l-5.22,14.47a.44.44,0,0,0,.32.61l1.91.73a.47.47,0,0,0,.66-.28l1-2.81c.25-.64.71-.77,1.41-.53l33.49,12.33c.67.25,1,.66.76,1.33l-1,2.76a.46.46,0,0,0,.28.63l2,.73a.44.44,0,0,0,.62-.31l5.2-14.45c.12-.28,0-.46-.31-.58Z" fill="#8d734a"/><path d="M416.81,431.18c-7-2-10.7-.09-16.53,7.22-4.18,5-6.5,5.82-10.43,4.71-3.5-1-6.77-3.34-5.38-8.26s5.59-5.82,11.07-3.57c.3.21.48.09.56-.2l1.69-5.85c0-.18-.11-.38-.36-.52-8.73-3.56-13.56.22-16,8.89-2.89,10.14.74,15.23,8.45,17.49,6.53,1.84,11.16-.52,17.18-8.18,3.91-4.75,5.72-5,9.52-3.86,4.11,1.17,5.61,3.61,4.56,7.32-1.31,4.59-5.26,4.76-10.16,2.8-.24-.13-.43-.08-.56.21l-1.62,5.76a.45.45,0,0,0,.36.52c8.68,3.59,12.81-.08,15.18-8.38C426.46,439.69,424.34,433.35,416.81,431.18Z" fill="#8d734a"/><path d="M237.08,101.4c-75.5,0-136.76,103.16-136.76,230.44s61.26,230.47,136.76,230.47S373.89,459.18,373.89,331.84,312.63,101.4,237.08,101.4Zm0,452.68c-67.75,0-128.59-95.24-128.59-222.24s60.83-222.18,128.59-222.18,128.6,95.23,128.6,222.18S304.85,554.08,237.08,554.08Z" fill="#8d734a"/><path d="M203.93,617.67H197.8c-.61,0-.89-.31-.89-1V592.82a107.14,107.14,0,0,1,.61-12.32c.06-.28-.09-.42-.36-.42h-4.07a.83.83,0,0,0-.66.42c-1.78,1.89-5.4,3.84-9.38,5.12a.48.48,0,0,0-.39.44v2.06c0,.34.12.48.39.43l7.19-1.59v29.71c0,.7-.28,1-.92,1h-6.16c-.31,0-.38.2-.38.44v1.93c0,.27.07.46.38.46h20.76c.28,0,.39-.19.39-.46v-1.93C204.32,617.87,204.21,617.67,203.93,617.67Z" fill="#8d734a"/><path d="M422.29,475.95c-2-.66-4,.11-4.67,1.92s.32,3.6,2.36,4.28a3.49,3.49,0,0,0,4.59-1.86A3.37,3.37,0,0,0,422.29,475.95Z" fill="#8d734a"/><path d="M51.86,474.25a3.53,3.53,0,0,0-2.33,4.41A3.3,3.3,0,0,0,54,480.49a3.65,3.65,0,0,0,2.37-4.54C55.74,474.17,53.85,473.48,51.86,474.25Z" fill="#8d734a"/><path d="M446.7,333.69a3.61,3.61,0,0,0-3.8,3.45c0,1.93,1.55,3.21,3.7,3.16a3.43,3.43,0,0,0,3.65-3.32A3.33,3.33,0,0,0,446.7,333.69Z" fill="#8d734a"/><path d="M37.7,341.1l.08-3c0-.58.33-.92,1.08-.89l35.7.61c.69,0,1.08.38,1,1l0,3a.41.41,0,0,0,.47.44l2.08,0c.33,0,.52-.11.52-.41l.24-12.24c0-.31-.2-.42-.52-.42l-2,0c-.33,0-.5.09-.5.43l-.07,2.94c0,.67-.38,1-1.1,1l-29.91-.55,20.43-10c4.57-2.22,9.11-4.27,13.56-6.24a.58.58,0,0,0,.33-.48l.15-7.33c0-.28-.2-.4-.49-.4l-39.36-.7c-.7-.06-1.08-.3-1.08-1l.07-3c0-.33-.16-.46-.48-.46l-2.06-.06c-.33,0-.5.17-.5.44L35.06,316c0,.25.23.37.48.38h2.09c.26,0,.48-.08.48-.32l.07-3c0-.66.36-1,1.11-1l29.8.54L48.44,322.68c-4.47,2.17-9.08,4.31-13.11,6.05-.31.12-.47.27-.47.54l-.23,11.78c0,.3.19.44.49.44l2.08,0C37.52,341.55,37.7,341.41,37.7,341.1Z" fill="#8d734a"/><path d="M97.59,452.76l-1.94.75a.44.44,0,0,0-.34.62l1,2.78c.22.66,0,1.06-.69,1.34L62.11,470.59c-.71.27-1.14.08-1.37-.58l-1-2.76c-.13-.28-.34-.39-.6-.28l-2,.7a.48.48,0,0,0-.27.64L62,482.74a.45.45,0,0,0,.66.25l1.92-.73a.42.42,0,0,0,.33-.58l-1-2.81c-.25-.62,0-1,.68-1.26l33.57-12.35c.66-.25,1.14-.11,1.33.48l1,2.87c.12.31.35.33.61.22l1.95-.73c.31-.08.41-.27.33-.53L98.2,453.08A.48.48,0,0,0,97.59,452.76Z" fill="#8d734a"/><path d="M36.72,295.29l2,.3c.3,0,.51-.07.54-.37l.36-3c.07-.64.5-.89,1.17-.78l35.44,4.36c.74.12,1,.45,1,1.07l-.37,3c0,.3.14.43.44.48l2.06.27c.3.05.5-.07.54-.37l2-16.14c.93-7.65-.26-15-9.76-16.18-7.29-.88-10.8,2.54-12.31,7.85-.31-5.07-3.62-8.31-9.16-9-9-1.14-11.61,4.84-12.56,12.48l-1.88,15.52C36.18,295.13,36.39,295.28,36.72,295.29Zm24.33-12.07c.72-5.59,3.08-8.35,10.07-7.48,5.34.67,7.89,3.4,7.28,8.57L78,287.52c-.08.67-.47.92-1.19.83l-16.15-2ZM41.5,280.08c.49-4.17,2.4-6.23,8.16-5.51,6.83.85,8.43,4.43,7.92,8.53l-.27,2.82L42.1,284c-.72-.08-1-.41-1-1Z" fill="#8d734a"/><path d="M77.1,378.6c.73.22,1.08.29,1.16,1l.11,1.73c0,.27.25.38.52.38l2.09-.15c.29,0,.44-.15.44-.44l-.79-11a.39.39,0,0,0-.47-.43l-2.11.13a.46.46,0,0,0-.47.48l.25,2.84c0,.62-.32.89-1.09.75l-10.86-2.25-.85-12,10.45-3.9c.71-.28,1.11-.08,1.15.74l.2,2.65c0,.3.18.41.52.38l2.06-.14c.3,0,.49-.18.46-.47l-1-14.17c0-.31-.21-.41-.54-.38l-2,.16c-.33,0-.49.12-.49.44l.15,1.67c0,.66-.33.86-1,1.18L44.21,359.47c-2.34.88-5.19,1.81-7.8,2.51-.29.09-.44.25-.4.43l.48,6.94c0,.16.18.33.47.35a129.37,129.37,0,0,1,13.41,2.54ZM61.4,361l.71,9.79-17-3.58Z" fill="#8d734a"/><path d="M64.28,455.66c7.1-2,9.17-5.63,10.28-15,.9-6.47,2.45-8.38,6.42-9.52,3.5-1,7.42-.84,8.8,4.08,1.44,5.08-1.63,7.94-7.5,8.94-.33,0-.44.19-.35.51l1.66,5.87c0,.2.3.22.57.22,9.26-1.65,11.37-7.47,8.94-16.07-2.89-10.18-8.63-12.56-16.35-10.32-6.51,1.91-9.21,6.4-10.31,16.1-.84,6.17-2.25,7.34-6,8.45q-6.18,1.76-7.75-3.76c-1.32-4.61,2-6.86,7.12-7.84.33-.05.49-.23.4-.47l-1.63-5.8a.66.66,0,0,0-.63-.28c-9.18,1.66-10.79,7-8.42,15.25C51.7,453.69,56.78,457.9,64.28,455.66Z" fill="#8d734a"/><path d="M406.12,98.87C361.74,35.77,301.85,0,237.08,0s-124.66,35.77-169,98.87C24,161.51,0,244.35,0,331.84s24,170.36,68.08,233c44.33,63.15,104.26,98.93,169,98.93s124.67-35.78,169-98.93c44.07-62.63,68-145.39,68-233S450.19,161.51,406.12,98.87ZM399.46,560c-43.18,61.48-100.87,95.44-162.39,95.44S117.92,621.53,74.65,560C31.76,499,8.18,418,8.18,331.84S31.76,164.73,74.65,103.66C117.92,42.21,175.54,8.24,237.08,8.24s119.2,34,162.39,95.41C442.39,164.73,466,245.77,466,331.84S442.39,499,399.46,560Z" fill="#8d734a"/><path d="M56.86,421.58,56,416.65c0-.29-.25-.38-.55-.33l-4,.72c-3.15.56-4.51-.25-5-3l-.57-3.37,35.6-6.35a.91.91,0,0,1,1.23.84l.94,5.27c0,.21.23.3.53.28l2.07-.37a.4.4,0,0,0,.41-.47l-3.45-19.75c-.08-.32-.24-.4-.55-.32l-2,.34c-.31.06-.43.2-.4.5l.91,5.28c.08.63-.25,1-.91,1.12l-35.64,6.35L44,400.06c-.5-2.69.52-4,3.66-4.56l4-.72c.3-.08.44-.21.41-.48l-.84-4.92a.42.42,0,0,0-.6-.35L39,391.33c-.35.05-.46.22-.44.51,1,4.64,1.51,7.08,2.21,11.26l1.62,9.22c.75,4.2,1,6.06,1.7,11.32a.41.41,0,0,0,.6.28l11.79-1.85C56.76,422,56.92,421.89,56.86,421.58Z" fill="#8d734a"/><path d="M319.33,293.21C323.64,283,327.88,271,329,256c2.46-33.33-5.55-61.89-18.92-63.13a6.23,6.23,0,0,0-3.84,1c-8.8,5.69-13.17,8.21-22.18,15.42-2.75-11.72-5.36-22.24-7.07-28.88-.84-2.28-2.31-3.85-4.18-4.14a4.72,4.72,0,0,0-3.66,1.13c-17.35,13.35-66.86,57.52-68.27,127.65-.08,3,0,5.76,0,8.26-2.66.4-4,.86-4,1,1.17-8.79-1.82-16.75-8.72-20.48-4.36-2.38-9.63-2.69-14.92-1.39a50.34,50.34,0,0,0-6.38,2c-1.84.51-3.64-1.42-3.26-6.19s-2.15-4.72-3.63-4.17-5.91,5.26-7.86,6.6-4.39.92-4.61-1.56-4.1-1-6.15,1.18S126,303,126,303l1.37,2.41,16.25-11.43,2.14,2.83-10,8,1.68,1.92L149,300l3.69,4.21-.67,2.35a18.65,18.65,0,0,0-2.59,7.57c-4.88,11.72-2.52,23.66,6.45,28.53,6.59,3.55,15.22,2.5,22.92-2l-.34,2.45-.38,2.47s-12,7.55-15.26,10.35-3.78,4.33-3.78,4.33-2.91,16.09-4.28,21.42-4.75,13.83-3.6,16,4.9,4.1,6.57,2.94.38-2.94,1.14-6.42,5.23-23.4,6.42-27.66,7.4-9.55,10.56-11.8c2.23-1.5,3.8-3.08,5.11-3.54a16.37,16.37,0,0,0,2.09,1.84,3,3,0,0,1-1.09,1.18,81,81,0,0,1-7.46,5.81c-2.22,1.31-3.9,5.15-3.9,5.15s-2.55,13.41-3.33,19.06-4.91,15.78-4.87,19.66,4.82,5.71,6.13,6.55,1.51-6.4,3.2-10,6.45-24.6,7.22-29.73,2.41-5.11,4.52-7.54,8.08-6.15,8.08-6.15a18.44,18.44,0,0,0,4.9,1.32c1.73,0,1.51,3.29,1.51,3.29l-6.69,4.73c-2.22,1.56.28,6.09,1.19,9.3S195,399,195.36,406.5s4.41,6.76,6.38,7.07.88-2.06.84-7.85-1.74-24.89-2.5-29.42-.64-7.29,1-8.66,7.75-6.2,9-6.56,2.63,1.81,2.63,1.81a30.14,30.14,0,0,1-6.31,5.9c-3.52,2.17-1.86,6.58-1.42,9.67s1.65,27.34,1.45,32.57,2.94,5.17,5.4,5.84,2-1.63,2.21-5.18-2.28-32.92-1.94-35.09,4.51-7.57,7.94-11.15,5.61-4.39,7.74-3.29,1.17,3.67,1.17,3.67-5,10.2-6.11,12.53-3.23,5.53-2.63,8.12,4.34,15.05,5.55,26,3.07,41.93,2.86,47.13,2.7,11,5,12.65,8.24,8.27,11,7.06-1-6.8-2.25-8.09-4.86-5.78-5.51-9.2-1.17-21.62-1.32-32.13S232,398.87,231,394.3s-1.58-14.63,2-19.28,4.39-.64,4.39-.64L235.45,387c-.55,4,1.74,15.48,3.08,23.39s3.37,42,2.93,46.87.8,8.12,2.53,10,5.36,11.93,7.58,16.17,6.45,4.89,9.54,3.19-4.8-12.1-7.66-15.86-3.84-11.9-4.59-22.56c-.46-7.16,0-15-.27-19.84a18.48,18.48,0,0,0,9.94,8.1,14.23,14.23,0,0,0,.07,5.66,15.25,15.25,0,0,0,8.92,10.73,12.7,12.7,0,0,0-.78,6.79,13.31,13.31,0,0,0,8.17,10.16c4.69,1.86,10.8,2,16.14,1.36s11.1-2.39,15-5.32a12.44,12.44,0,0,0,4.68-11.81,12.7,12.7,0,0,0-2.62-6,19.76,19.76,0,0,0,3.59-2.51,14.16,14.16,0,0,0,4.67-13.89,15,15,0,0,0-4.53-8,34.47,34.47,0,0,0,5.44-4.89,17.35,17.35,0,0,0,3.39-17,18.38,18.38,0,0,0-9.1-10.43l1.48-1.8A17.14,17.14,0,0,0,315,372.13c-3-6.62-9.44-10.65-15.83-11.94a16,16,0,0,0-1.79-16.13c-4.54-6.27-15.38-10.55-23.48-8.47C297.79,324.33,314.11,305.59,319.33,293.21Zm-112.8,12c1.26-61.41,40.83-102.34,60.7-119.09l4.74-4,1.47,6.07c1.64,6.72,3.72,15.45,5.84,25-22.81,19.55-50.11,52-57,98.8l-.28,2a77.47,77.47,0,0,0-15.42-1.3C206.53,310.5,206.47,308,206.53,305.21Zm-52.65-11.27c2.24-1.31,7.18-1.89,6.42,1.34a16.73,16.73,0,0,0-.66,4.28l-4.42-.73S151.72,295.25,153.88,293.94Zm7.48,39.18c-8.26-4.45-9.71-14.83-3.14-24.85s18.69-14.5,26.95-10,9.63,16.28,3,26.3S169.64,337.66,161.36,333.12Zm86.07,80.09-.23-3.8,1.64,1.07A12.18,12.18,0,0,0,247.43,413.21Zm53.25,46.1c-2.19,1.7-6.28,3.1-11,3.65s-9.06.33-11.7-.75a4.48,4.48,0,0,1-2.82-3.53c-.4-2.43,1.32-4.71,5.11-5a29.86,29.86,0,0,0,7.9-.09,29.46,29.46,0,0,0,7.62-1.91l1.24-.37a4.8,4.8,0,0,1,5.27,3.86A4.46,4.46,0,0,1,300.68,459.31Zm5.36-20c-3.17,2.74-9.37,5.22-16.6,6.52s-13.94,1.2-18.05-.25a6.75,6.75,0,0,1-4.42-4.93,6.34,6.34,0,0,1,5.13-7.54A9.49,9.49,0,0,1,274,433a47.81,47.81,0,0,0,12.54-.7,45.74,45.74,0,0,0,11.86-3.67,6.79,6.79,0,0,1,9.67,4.62A6.22,6.22,0,0,1,306,439.32Zm6.55-35a9,9,0,0,1-1.76,9c-4.11,4.62-12.49,9.44-22.72,12.75s-19.88,4.29-26,2.91a9.47,9.47,0,0,1-6.93-6.22A9.12,9.12,0,0,1,261,411.09a11.48,11.48,0,0,1,2.64-.48,66.14,66.14,0,0,0,18.14-3.36,68.3,68.3,0,0,0,16.6-7.79,11.53,11.53,0,0,1,2.36-1.19A9.49,9.49,0,0,1,312.59,404.32Zm-5.43-29a9.18,9.18,0,0,1-1,9.31c-3.8,5-12.11,10.63-22.45,14.89s-20.37,6-26.78,5.17a10.08,10.08,0,0,1-7.82-5.77,9.18,9.18,0,0,1,5-12.34,7.4,7.4,0,0,1,2.66-.69,74.16,74.16,0,0,0,18.62-5,68.63,68.63,0,0,0,16.61-9.36,13,13,0,0,1,2.36-1.35A10.07,10.07,0,0,1,307.16,375.31Zm-29.89-27.09a8.06,8.06,0,0,1,1.68-1.55,8.43,8.43,0,0,1,11.47,2.09,8,8,0,0,1,.89,7.93c-2.25,4.69-7.95,10.7-15.57,15.89s-15.34,8.34-20.68,8.74c-2.86.19-5.71-1-8.08-4.49a7.79,7.79,0,0,1,2.49-10.11,7.78,7.78,0,0,1,2-1,59.82,59.82,0,0,0,14.08-7.18A55.56,55.56,0,0,0,277.27,348.22Zm-36,16.93c-2.59,1-3.77-2.31-4.19-4.57.41-1.64.14-2.92-1.2-2.42a4.72,4.72,0,0,1-5.63-.83c-1.89-1.83-2.81-4.29-1.81-6.56-4.67,1.63-14.33,5.62-23.34,2.14-2.51-.91-2.84-4.32-1.9-6.56A35.68,35.68,0,0,1,191,348.81c-2.89,0-9.8-.64-6.91-9.53,3.2-10,7.93-16.54,18-19.54,6.33-1.89,13.9.11,17.15.5-2.1,18.26-1.44,23.3,14.56,25.87,14.25,2.34,28.31-5.81,39.06-3.53C280,345.44,258,358.91,241.25,365.15Zm-9.62-26c-.41-3.16.35-8.49,3.14-17.92,15.13-51.93,59.45-70.66,81-76.78l1.74-.54-1.92.47c-22,4.83-67.77,20.78-85.8,71.25a105.85,105.85,0,0,0-3.21,10.28,110.91,110.91,0,0,1,1.38-12.95c8.9-60.63,53.39-96.41,75.34-110.63l6.63-4c2.74.28,6.69,4.06,10,15.42,3.07,10.51,4.73,25.45,3.53,41.7-1.1,14.58-3.61,22.34-9.77,35.34C304,311.22,267.17,342,231.63,339.13Z" fill="#8d734a"/><path d="M174.95,303.7c-5.56-.66-10.45,2.84-10.91,7.78s3.69,9.43,9.26,10.07,10.48-2.93,11-7.82S180.51,304.3,174.95,303.7Zm-2.25,11.11a3.73,3.73,0,0,1-3.46-3.79,3.52,3.52,0,0,1,4.13-2.95,3.77,3.77,0,0,1,3.52,3.78A3.62,3.62,0,0,1,172.69,314.81Z" fill="#8d734a"/></svg>